<svg xmlns="http://www.w3.org/2000/svg" xmlns:xlink="http://www.w3.org/1999/xlink" width="280" height="280" viewBox="0 0 280 280"><defs><style>.a{fill:none;}.b{clip-path:url(#a);}.c{fill:#305397;}.d{fill:#fff;}.e{fill:#00020e;}</style><clipPath id="a"><rect class="a" x="21.9" y="29.5" width="232.2" height="249.97"/></clipPath></defs><g class="b"><path d="M38.3,92.5l-4,4.9c0-.1-.1-.1-.2-.2s1.4-2.6,2.2-3.9c2.2-3.5,4.5-6.9,6.6-10.5,8.2-13.7,18.5-25.3,32.4-33.4,3.5-2,7.1-4.1,10.7-5.9a137.1,137.1,0,0,1,13.7-5.8c6.3-2.2,12.7-3.9,19-5.9,11.3-3.5,22.6-2.4,33.9-.2,5.9,1.1,11.8,2.6,17.7,4.3a51.7,51.7,0,0,1,8,3.6c3.3,1.7,6.6,3.8,10,5.3a91,91,0,0,1,22.2,14.4c8.1,6.9,15.6,14.3,21.7,23s11.4,17.5,14.5,27.6a113.1,113.1,0,0,1,5.1,24.3c.5,6.6.7,13.3,1.2,19.9s.8,10.5,1.1,15.7-1.6,12.7-4.3,18.5c-1.6,3.6-3.8,7-5.8,10.6s-3.5,6.3-5.4,9.5-3.2,4.6-4.7,6.9a32.4,32.4,0,0,0-1.7,3.2c-3.3,5.8-6.5,11.9-12,15.8-8.9,6.5-17.7,13.1-27.7,17.8-2.7,1.3-5.5,2.4-8.1,3.8-.5.2-.8,1.1-.8,1.8s-.1,4.4-.2,6.6a9.6,9.6,0,0,1-1,3.4c-3.8,7.8-9.5,11.6-18.5,11.9-3.8.1-7.6.1-11.2-1.3-8.3-3.1-13.3-8.5-13.7-17.7-.1-1.9-.9-2.5-3.7-2.4s-3.9.2-5.8.1a86.3,86.3,0,0,1-33.7-9.4c-3.3-1.6-6.8-2.9-10.3-4.3s-3.8.4-5.3,1.8a66.4,66.4,0,0,1-5.5,5.1c-5.9,4.4-12.9,3.6-17.7-2.1a23,23,0,0,1-5.6-13.6,23.8,23.8,0,0,1,2-11.5l-2.9-2c-9.5-7.3-16.1-16.7-20.7-27.7a60.3,60.3,0,0,1-4.1-16.2c-.3-2.8-1.4-5.6-1.8-8.5-1-7.8-2.4-15.6-1.9-23.6.3-3.8-.1-7.7.4-11.5A97.1,97.1,0,0,1,25,122.8a61.7,61.7,0,0,1,3-9.5A114.8,114.8,0,0,1,33.6,103c1.9-3.3,4.2-6.4,5.1-10.2l-.4-.3m129.8,142H167c-2.9-1.2-5.7-2.9-9-1.7-1.6.6-3.4.8-5,1.3s-1,1-1.7,1.1c-2.3.7-3.3,2.7-4.3,4.4-1.9,3.7-3.4,7.6-5,11.4a2.6,2.6,0,0,0-.1,1.2c1.2,0,2.4-.3,3.3.1,2.6,1.2,5.3,1.2,8.1,1.2a48.7,48.7,0,0,0,5.4-.2c2.3-.4,4.5-1.7,6.9-.4.3.2.8.1,1.2.1l10.1-1.3c2.4-.3,3.3-1.7,2.3-3.3A37.8,37.8,0,0,1,177,245c-.9-1.8-3.2-2.8-3.1-5.3,2.5,3.3,5.2,6.4,7.5,9.8.8,1.3,1.6.9,2.4.7s2.6-1.1,4.4-1.9c-.5-3.4-.7-7.1-1.5-10.6s-2.3-7-3.5-10.6c-1,.6-1.8.8-2.2,1.3a14.4,14.4,0,0,1-6.1,4.6c-.4.2-1.1.3-1.4,0a1.4,1.4,0,0,1-.5-1.3,8,8,0,0,1,1.8-3c1.7-1.2.8-2.5.5-3.6s-1.6-.5-2.4-.4-2,.4-2.6-.8-1.5-2,.1-3.1.1-.5.2-.7a2.4,2.4,0,0,0-1.5.8c-2,2.1-2.1,2.1-3.7.7h-2c.2-.6.3-1.5.7-1.8s1.3-2.6,1.3-4.2a27,27,0,0,0-2.8,3.1c-.7,1-1.3,1.7-2.1.6s.5-1.7.7-2.5,0-1.1.3-1.4c1.8-2.2,3.7-4.3,5.5-6.4a2,2,0,0,1,2.9-.2c.9,1,1.8.8,2.8.8s1.3.5,1.4.9a16,16,0,0,0,3.8,6.7c.2.2.5.6.4.8s.5,2.3,1.1,3.3.8.5,1.3.8.4-1.1.2-1.5c-1.4-3.2-3-6.3-4.2-9.6s-2.4-6.5-3.5-9.8c-.4-1.3-1.1-1.6-2.5-1.1a15.7,15.7,0,0,1-4.6,1.2c-3.6.3-7.2.3-10.8.4a2.5,2.5,0,0,1-1.3-.3,1.7,1.7,0,0,1-.6-1l.8-.5a58.3,58.3,0,0,1,5.9-.3c5.3.3,10.3-1.2,15.1-3.3l1.5-.6c-1.9-1.8-1.9-1.8-.8-3.3a14.2,14.2,0,0,0,.8-1.8l-.5-.3c-1.1,1.2-2.3,2.3-3.3,3.5s-2.5,2.6-4.9.9a1.8,1.8,0,0,0-2.3.2c-1.2.9-1.8.7-2.3-.6l-1.5-.2a3.4,3.4,0,0,1,.2-1.4c.4-.8,1.1-1.5,1.5-2.3s.1-.9.1-1.3h-1.6c-.5.1-.8.5-1.2.8l-.6-.4c1.4-3,2.7-6,4.1-9.2l-2-.8c-.8-.3-1.5-1.1-.7-1.8s2.8-4.6,6.1-3.1c.2.1.6-.3.9-.4l1.8-.2a13.9,13.9,0,0,1-.6,1.9c-.5.9-1.3,1.6-1.8,2.4s-.2,1.4,1,1.4,1.1.3,1.6.6.5.4.7.3,1.2.6.6,1.6-1.3,1.6-.2,2.7a9.8,9.8,0,0,1,2.2-1.3c.4-.2,1.2-.2,1.4.1a28,28,0,0,1,2.5,3.6l4.8-.9a1.4,1.4,0,0,1,.9.3c1.2,1.4,2.3.6,3.3-.2,3-2.5,6.9-4.1,8.5-8h.1c1.5-2.7,3.1-5.4,4.5-8.1.3-.5,0-1.5-.1-2.1a12.1,12.1,0,0,0-.9-2l-1.8-.4a17.7,17.7,0,0,1,.4-3l-4,3.1c-.3.2-.9,0-1.4,0a5.7,5.7,0,0,0,.1-1.3c0-.2.2-.4.2-.6l-.2-.3-3,2.2c-1.3-2.1.7-2.6,1.4-3.6s2.1-1.8,3.1-2.8l-.4-.5c-3.2,1.1-5.2,3.7-7.6,6l-1.2-1,5-5.2-.3-.6a5.5,5.5,0,0,0-1.8.6c-1.3,1.3-2.5,2.7-3.8,3.9a6.4,6.4,0,0,1-1.6,1.1,1,1,0,0,0-.4-.5,8.9,8.9,0,0,1,.8-1.7c1-1.1,2.1-2.3,3.2-3.3s1.1-1.4.1-2.5l-4.4,4.2a6.9,6.9,0,0,1-1.5.7l-.3-.6,6.9-7.7c-.1-.2-.3-.3-.5-.5a4.1,4.1,0,0,0-1.1.7l-5.2,5.3c-.3.3-.9.3-1.3.4a2.9,2.9,0,0,1,.1-1.3c.2-.4.7-.7,1.1-1.2-2.1-.8-1.4-1.7-.4-2.7s2.2-2.3,3.2-3.5l-.4-.5c-1.1,1.1-2.1,2.2-3.3,3.2a5.9,5.9,0,0,1-2,.6,5.5,5.5,0,0,1,.6-1.8l4.2-4.9-.3-.7c-1.3,1.6-2.7,1.9-4.2.8,0-.1-.1-.4,0-.4l7-6.6c.1-.1.5,0,.7.2a.8.8,0,0,1,0,.7l-1.3,1.7,1.7,1.9c1.8-.8,3-2.9,5.2-2.9l.3.4-3.3,4.4c2.5-.5,4-2.6,6.7-2.3l-3,3.2,2.1.7-1,2c1.1-.5,2.1-1.1,3.2-1.5s1,0,1.5,0a6.7,6.7,0,0,1-.6,1.5l-3.8,4.2a31.1,31.1,0,0,0,5.6-2.2,7.2,7.2,0,0,1,2.1,0l-4.3,3.7c1.8.7,3.2-1.8,4.7,0l-1.8,2.1c2.2-.2,2.4-.4,2.5-2s.1-1.6.1-2.4c.3-7.7-1.1-15.3-1.8-22.9a54.1,54.1,0,0,0-4.7-16.7c-1.3-3-2.6-6.5-6.5-7.5-.2,0-.4-.3-.5-.5s-1.4-1.9-2.6-.4-.8.2-1.2.3-.2-.9,0-1.1.4-1.7-.7-2.3-1.8-.2-2.2.9-.3.8-.6.9l-1.9.4a4.3,4.3,0,0,1,.1-1.6c.1-.5.5-.9.6-1.4s.1-.6.1-.9a3.5,3.5,0,0,0-1.1.3c-.4.2-.6.6-1,.9a8.6,8.6,0,0,1,0-1.6c.3-1.2-.7-1.7-1.3-1.2s-2.6,1.3-3.9,0h-.7c-1.2.2-1.4-.3-.8-1.4a3.2,3.2,0,0,0,.2-1.4,4.4,4.4,0,0,0-1.5.8,21.3,21.3,0,0,0-2.2,2.1c-.3-1.2-.4-2-.6-2.8A7.5,7.5,0,0,0,166,94a20.4,20.4,0,0,0-2.2.9c-.3.1-.4.6-.6.9s-1.5,1.5-2.8.5l2.1-4.3a1.5,1.5,0,0,0-1.4.3,14.1,14.1,0,0,1-1.8,2.3,3,3,0,0,1-1.6.5,3.9,3.9,0,0,1,.2-1.5c.5-1,1.2-1.9,1.8-2.9-3.4,1.1-3.5,1-3.6-1.3l-4.7,2.5c-1.2.6-1.9.2-1.7-1.1a22.4,22.4,0,0,1,1.1-3.4c-.8-.6-1.5-.8-2,.3a14.7,14.7,0,0,0-1,2.2l-.8-.3c.2-.8.3-1.6.5-2.6-2.9-.6-5.7-.2-8.6.2l-4.4.8c-2.3.5-4.7.7-7,1.4s-5.6,1.8-8.3,2.8l-3.5,1.7-4.6,1.9c.4-1,.5-1.4.7-1.8l-.4-.3L108.3,97l-1.4-2.7-.6.5a10.4,10.4,0,0,1,.6,1.6,11.8,11.8,0,0,1,0,1.9c-2.9-3.2-4.1-3.2-6.2-.8l.3.4c1,2,1,2.1-1.2,2.3l-1.7-.2-3.9-1.5c.3.5.5.7.5,1a14.7,14.7,0,0,1,0,2.1l-1.8-.4a4.6,4.6,0,0,1-1.4-.7l-.3.4c.7,1.1,1.5,2.2,2.1,3.3a4.9,4.9,0,0,1,.1,1.7l-.7.2-3.4-4.9-2.9,1.5c.9,2.1-.6,2-2.1,1.9.7,2.1,3.6,3.2,2.1,6.1-1.3-1.4-2.3-2.6-3.5-3.7s-1.1-.2-1.6-.1a1.5,1.5,0,0,0-.4,1.1c1,1.5-.2,1.6-1.1,1.9l-2,.6,1.6,5.3a1,1,0,0,0-.5.4l-2.7-1.4c-.4.6-1.2,1.3-1.1,1.9.4,2.4-.8,2.4-2.5,1.7a12.4,12.4,0,0,0-.4,1.6c-1.6.3-2.5,1.6-2.5,3.8-.1,3.7-.1,7.4-.1,11.1,0,1.2.2,2.5.3,3.7l1.5,10.2c.6,3.9,1.2,7.7,1.9,11.6a12,12,0,0,0,.6,1.7l3.7-4.7H78c.2,1,.3,2.1.5,3.4a15.2,15.2,0,0,1,1.5-3.4,3.5,3.5,0,0,1,2.3-1c.2,0,.7,1,.8,1.6a15.4,15.4,0,0,1,.4,3h.4l1.2-4.7h.5l1.2,2.3,2.6,1.8,1.5-1.3,1.7-.5a12.7,12.7,0,0,1,.6,1.8,13.4,13.4,0,0,1,.1,2c0,1.6-.2,3.2,1.3,4.4v.2c-.5,2,.3,4.2-1,6.1a4.5,4.5,0,0,0-.9,2.5c-.2,2.5-2.7,1.9-3.8,3.1a2,2,0,0,1-.8.4h-.4l-3.3-2.4c.3-2.7.5-2.9,3.2-3.6a2.6,2.6,0,0,0,1.2-.5c.3-.3.6-1,.4-1.2a37,37,0,0,0-3.6-3.3.6.6,0,0,0-.8,0c-1.4.9-1.9-.2-2.4-1.1l-.6-1.3a7.6,7.6,0,0,0-.6,1.8,1.6,1.6,0,0,1-.9.7l-2.4-.3-.7-1-.5.2c0,1.2-.8,2.2.1,3.5a8.7,8.7,0,0,1,1,2.4c1.4,3.8,2.3,7.7,5.2,10.9s7.8,8.4,12.7,11.4c6.5,4,14,5,21.4,6a4.4,4.4,0,0,0,1.9-.3c0,.3.1.5.1.8l-6.1,1.1c0,.3.1.6.1.9,3-.3,5.9-.5,8.8-.9,1.2-.1.9-1,.7-1.9a26.7,26.7,0,0,1-1.5-6.2c-.2-4,.2-7.9.3-11.9,0-.7-.4-2-.7-2-2.2-.3-3.3-1.5-3.2-3.9a32,32,0,0,0-2.7,2.2c-.3.2-1,.3-1.2.1s-.3-.8-.4-1.2.2-.5.3-.8a7.6,7.6,0,0,0-2.2,1.1c-.6.2-1.3.5-1.7.3s-.8-1.3-.2-2,1.1-1.4,1.6-2.1l-.2-.3-2.8,1.2-.3-.5c1.2-2,2.3-4,3.5-6.3-2.6.6-3,2.7-4.2,4.2s-.7.4-1,.7-.4-1.1-.2-1.5l1.9-3c.3-.4.6-1.1.4-1.2s0-2.4.6-3.4l2.1-2.9c-1.6-1.2-1.6-2.1,0-3.2a7.7,7.7,0,0,1,2.4-1.2,2.3,2.3,0,0,1,1.4.6c-.4,1.3.4,2.7-.8,3.9a20.3,20.3,0,0,0-2.1,3.5l.5.3,2.6-2.2a3.4,3.4,0,0,1,1.4-.5,4.4,4.4,0,0,1,.2,1.6c-.4,1-.9,2-1.6,3.4a6,6,0,0,0,1.3-.8c.5-.4.9-1.4,1.8-.5s.3,1.3-.4,2a11.4,11.4,0,0,0-1.2,2.2c2.1-.5,2.2-3.3,4.4-2.9v-3c0-3.1.3-6.1-.2-9.1s-1.2-7.7-3.6-11c-1.1-1.5-2.1-3-3.3-4.4a13.8,13.8,0,0,0-3.4-3c-3.5-1.9-7-1.4-10.7.4s-6.4,2.7-10.2,1.5-6.5-4-5.8-9.1a17.4,17.4,0,0,1,.5-2.2c1.2-2.6,4-2.8,6.2-4.1.4-.3,1.4.2,2.1.4h.8c1.2-1.1,2.4-.9,3.7-.2s2.7,1.2,3.9,2c2.8,1.7,5.9,3.1,8.1,5.3A91.8,91.8,0,0,1,119.2,144a27.2,27.2,0,0,1,3.3,9.7c.7,3.7.6,7.6.8,11.4l.6,11.5c.1,2.8.1,5.7.2,8.5.2,4.5.4,8.9.7,13.4a8.3,8.3,0,0,0,.3,2.8c1.1,3.1,3.4,5.1,5.8,7s5.8,1.9,8.8,1.8a9.4,9.4,0,0,0,6.7-3.3c2.6-2.8,3.6-6.2,4-9.8s.6-10.1.7-15.2-.4-8-.2-12c.1-1.9-.2-3.2-1.8-4.2s-2.2,2.3-4.3,1.7l4.3-4.7-.5-.4a29.2,29.2,0,0,1-2.8,2.1,19.5,19.5,0,0,1-2.2.8,12.8,12.8,0,0,1,1.1-2l2.7-3.5-.6-.5-2.5,2.5c-.3.3-.9.3-1.3.4a2,2,0,0,1,.2-1.3,17.7,17.7,0,0,1,1.6-2.2l-.3-.4c-.4.2-1,.3-1.3.7s-2.8,2.4-4.2,3.5-.9.2-1.3.3-.1-.8-.1-1.2.2-1.3-.1-1.7a37.9,37.9,0,0,0-2.2-3.6,15.4,15.4,0,0,1,.8-3.4,18.5,18.5,0,0,1,5.2-6.2l1.9,1.4-1.4,1.8c2.3-.5,2.8-.3,3.7,1.4l.5.6c1,.7.7,1.2-.2,2s-3.1,3-4.6,4.5l.3.3c2-1.4,4-2.8,6.1-4.1.3-.2.9-.1,1.3-.1a5.3,5.3,0,0,1-.3,1.2,9,9,0,0,1-1,1.2c1.4.1,2.1-.2,2.3-1.5.4-3,1.1-5.9,1.4-8.8.5-5.1.7-10.1,1.1-15.2a1.2,1.2,0,0,0-.2-.8c-1-2.7.2-5,1.4-7.1a50.2,50.2,0,0,1,4.4-5.9c1.1-1.4,2.1-2.9,4.1-3.4a41.2,41.2,0,0,0,4.7-1.3,11.5,11.5,0,0,1,7.1.2,18,18,0,0,0,3.3,1,5.2,5.2,0,0,1,4.4,4.9l.3,2.9c.2,1.5-1.4,4.4-2.8,5.2s-5.6.9-8.5.1a18.6,18.6,0,0,0-3.4-.7c-1.4-.2-2.9-.2-4.4-.3-4.1-.4-6.5.2-7.6,5.1a59.4,59.4,0,0,0-1.4,10.3c-.1,5.5,0,10.9.4,16.3a44.2,44.2,0,0,1,.1,8.9,88.5,88.5,0,0,0-.9,15.4,141.1,141.1,0,0,1-.8,15.9,15.9,15.9,0,0,1-3.8,9.7,6.1,6.1,0,0,1-1.6,1.2,23.4,23.4,0,0,1-9.9,3.4,9,9,0,0,1-4.9-.4c-3.6-1.8-6.9-4.3-8.8-8-.8.4-1.5,1.1-2.2,1.2-2.6.2-5.3.1-7.9.2a2.9,2.9,0,0,0-1.8,1c-.5.5-.5,1.2-.8,1.9,2.3.5,1.5,1.6.9,2.4a23.2,23.2,0,0,0,1.8,1.6,3.1,3.1,0,0,0,1.3.3,12,12,0,0,0,2-.3c0,.6-.1,1.3-.1,2s-.1.4-.3,1l5.5-1.2a6.8,6.8,0,0,1,2,.2c-.3.6-.4,1.6-.9,1.9s-3.1,1.6-4.7,2.4a2,2,0,0,1-1.3-.1c-1.4-1-2.3-.5-3.2.9s-.8.3-1.3.4-.4-.9-.3-1.2a9.5,9.5,0,0,1,1.1-2l-.4-.3a16.2,16.2,0,0,1-1.8,1.9c-.7.8-1.5,1.4-2.3,0l2.2-3.2a4.4,4.4,0,0,0-3.4,3.7c-1.5,5.6-3,11.2-4.4,16.8a37.8,37.8,0,0,0-.6,4.7l2.9-.2c.9,0,2.1-1,2.7.4s-.9,1.6-1.5,2.4a4.3,4.3,0,0,0-.4,1.7c.6.1,1.3.5,1.7.3s2.4-.8,3,.8l.6.6c2,1.3,2,1.3.1,2.8l-.4.5c2.8.5,3.4,1.6,2,3.4-2.9-1.1-2.9-1.1-4.3.4l21.9,4.1c1.3-2,1.7-3.6.2-5.2-.1-.1.2-.6.4-1a1.4,1.4,0,0,0-1.2-1.9,3.6,3.6,0,0,1-1.4-.2c.2-.4.1-1,.4-1.3,2.2-2.3,4.5-4.4,6.8-6.6s1.6-1.8,2.3-2.6l-.5-.6a31.8,31.8,0,0,0-3.5,2.6c-1.8,1.9-3.5,3.9-5.2,5.8a1.4,1.4,0,0,1-.8.6,7.6,7.6,0,0,1-1.6-.6c.4-.8.1-.8-.6-.8s-.7-.4-1.2-.6l2.5-3.4c-2.7,1.8-2.9,1.7-3.3-.7l3.9-3a29.8,29.8,0,0,0,2.7-2.3l-.6-.6c-2,1.9-4,3.9-5.9,5.9l-2.9,2.4c-.6.6-1.3,1-1.9.3s.2-1,.5-1.5.5-.3,1-.6l-2.7-1.9.3-3.6-2.1.7-.2-.3a6.7,6.7,0,0,1,.9-1.4c1.7-1.5,2.8-3.5,5.2-4.4s4.1-2.7,6-4.1c2,.8.3,1.9.4,2.6l4.4,1.9c0,.1-.1.2-.1.4l1.8-.7c1.2,1.4,2.3,2.8,3.5,4.1l1.4,1.1c1,.6,1.5,1.3.7,2.4s-.9,1.3-.2,2.1.2.6,0,.8-1.5,2.7-2.2,4a8.6,8.6,0,0,0-.7,1,21.1,21.1,0,0,0-1.5,5.6c-.1,1.6-1,3.2-1.6,4.7a16.6,16.6,0,0,1,3.1.1c1.2.1,1.5-.4,1.7-1.4s.9-4.9,1.9-7.1c1.7-3.8,3.9-7.5,6-11.2a4.3,4.3,0,0,1,1.2-1.1l3.6-2.5a3.7,3.7,0,0,1,1.2-.7c2.9-.4,5.8-1.4,8.8-.8s4.8.5,6.2,2.9m-58.7-29.3c-3.5-1.6-7-3-10.3-4.9-5.6-3.1-10.2-7.3-14.8-11.7-2-1.9-4.2-3.8-5.4-6.2s-4.7-7.3-5.4-11.9S71,160,69.9,154.8a99.6,99.6,0,0,1-1.8-10.7c-.3-3.6-.1-7.4-.5-11a22.7,22.7,0,0,1,1.7-11.5,4,4,0,0,0-.7-4.6,75.2,75.2,0,0,1-4.7-6.4A31.8,31.8,0,0,1,59.4,98c-.8-4.5.8-8.7,1.8-13,.4-1.7,1.6-3.4.6-5.3s.4-1.7,1.2-1.4,1.5-.4,1.8-1.2.9-1.9,1.1-1.8,1-.7,1.5-1,1.7-1.5,2.7-2.2,2.4-1.5,3.5-2.2a8.5,8.5,0,0,1,2.4-.8c2.1-.7,4.3-1.9,6.7.1-1.8,0-1.8.8-1.1,1.9l2.9,4.7a14.9,14.9,0,0,0,1.2,1.4,14.6,14.6,0,0,0-.9-3.6l-1.2-3.4a5.9,5.9,0,0,0-.4-.8c.3-.1.6-.4.9-.3l2.9.5a4.8,4.8,0,0,1,.4-1.8,2.3,2.3,0,0,1,1.3-1.1c.3,0,.8.7,1.1,1.1s2,3.7,3.4,4.9c4.2,3.5,8.5,6.6,11.8,11l.3.2c2.6,2.2,4.1,5.2,5.4,8.3h1.5c3.6-1,7.3-1.8,10.9-3.1,6.8-2.7,14-3.4,21.2-4,1.4-.1,2.8.2,2.5-2a1.6,1.6,0,0,1,.3-.8c1.3-2.6,3-5.2,3.9-7.9s4.4-6.6,7.4-9,8.6-6.2,13.9-7.4a31.3,31.3,0,0,1,10.5-1c2.6.2,5.1,1.9,7.3,3.4s2.6,2.5,4,4l3.1-1.5.3.4a15.5,15.5,0,0,1-1.4,2.9c-.7,1.1-.1,2,.6,2.7s1.2,0,1.8-.1l1.5-.3c-.4.8-.7,1.2-.9,1.7s-1.9,2.4.1,3.6c.3.1.2,1,.1,1.5s-1.6,2.7.3,3.9a1.8,1.8,0,0,1,.1,1.3c-.3,2.4-2,4.6-1.1,7.2l-.2.4c-1.6,4.1-3.3,8.1-4.9,12.1-.5,1.4-1.1,2.7-1.7,4.3a9.8,9.8,0,0,1,3.9,5.3c1.2,3.4,2.9,6.6,4,10a97.2,97.2,0,0,1,3.2,11.4,63.8,63.8,0,0,1,1,9.7c0,4.5-.3,8.9-.5,13.4s-.3,6.6-.3,9.9.6,4.2-1.2,5.8c-.4,4.3-3,7.7-5.4,11a79.8,79.8,0,0,1-5.8,7,30.7,30.7,0,0,1-4.8,4.1c-3,1.8-6.2,3.2-9.1,5-1,.6-2.3,2-2.2,2.7a32.3,32.3,0,0,0,2.4,6.8c1.5,3.5,3.3,6.8,4.8,10.3s2.2,6.3,3.5,9.4a66.2,66.2,0,0,1,5.2,19c.1.8.3,1.5.5,2.6a16.8,16.8,0,0,0,3-1.4c4.2-2.9,8.4-5.8,12.4-9s6.1-5.4,9.1-8.1a49.7,49.7,0,0,0,4.2-3.8c2.9-3.2,5.7-6.6,8.6-9.9a70.2,70.2,0,0,0,13.5-22c1.7-4.4,2.8-9,4.1-13.5a31.9,31.9,0,0,0,1.5-5.9c.5-5.2.6-10.4,1.1-15.6a85.3,85.3,0,0,0-.5-20.2c-.9-7-2.6-14-4.1-20.9a43.1,43.1,0,0,0-1.5-6.2c-1.3-3.5-2.7-7-4.1-10.5s-1.8-4.3-2.8-6.4-1.9-3-2.7-4.5c-1.8-3.1-3.1-6.6-5.2-9.4a108.9,108.9,0,0,0-8.8-9.2c-2.5-2.5-5.2-4.8-7.7-7.3-1-1-1.8-2.3-2.8-3.3a31.7,31.7,0,0,0-3.9-3.4,4.1,4.1,0,0,0-3.6-1,3.4,3.4,0,0,1-3.9-2.1l2.7.6c0-.1.1-.3.1-.4l-.6-.5-10.6-6c-2-1.2-4-2.4-6.1-3.5l-4.8-2.9-1-.4c-1,1.3-2,.3-2.9,0s-1.8-.7-2.8-.9c-4.1-.9-8.3-1.6-12.5-2.7s-8.2-2.3-12.3-3.5l-3.1-.5,1.5-1.2a22.6,22.6,0,0,0-11,.3c-4.6,1.4-9.4,2.5-14,3.8l-1,.4c6.7-.1,12.9-2.5,19.4-3a27,27,0,0,1-3.4,1.7H134l-4.2,1-3.4,1c-2.8,1-5.7.4-8.6,1.3-5.3,1.7-10.9,2.7-16.3,4a30.9,30.9,0,0,0-4.6,1.2c-3.1,1.4-6.2,3-9.2,4.5L76.3,54.2c-1.5.8-2.8,2.7-4.3,1.1a8.4,8.4,0,0,1-1.1,2.1A6.4,6.4,0,0,1,69,58.7c-.7.4-1.6.4-2.1.9s-2.4,2.9-3.7,4.3-2.4,2.5-3.5,3.8-.9,1.5-1.4,2.1c-1.9,2.3-4.2,4.1-5.6,6.8s-3.6,6.5-5.5,9.7l-4,6.8a48,48,0,0,0-3.9,7c-1.4,3.4-2.4,7-3.5,10.6s-1.4,4.4-2,6.6a61.3,61.3,0,0,0-1.8,6.1c-.7,2.5-1.1,5.1-1.6,7.7a47.7,47.7,0,0,0-1.3,5.1c-.4,3.5-.6,7.1-.9,10.6a43.9,43.9,0,0,0-.7,7.2,83.3,83.3,0,0,0,.8,8.6c.6,3.8,1,7.7,1.8,11.4,1.9,8,3.7,15.9,7.1,23.5,1.6,3.6,3.2,7.1,6.3,9.8a26.6,26.6,0,0,1,3.4,4l8,9.6a25,25,0,0,0,3.8-2.7,12.6,12.6,0,0,1,6.2-3.1l8.7-1.5c3.5-.6,6.7-.9,10.2.9s7.6,5.8,10.5,9.6,2.6,5.1,3.8,7.8a31.9,31.9,0,0,1,1.1,3.3c2.3-10.5,7-20.1,10.2-30M81.6,242.1a10,10,0,0,1,3,.1c4.2,1,7.7,3.4,11.3,5.6l5.1,3.1.5-.4c-.4-.8-.8-2.3-1.3-2.4s-1.5-1.6-1.6-2.8.3-2.9.2-4.3c-.3-3.7-1.8-7.1-2.8-10.7s-4.1-6.7-6.5-9.7a2.8,2.8,0,0,0-1.1-.4,29.6,29.6,0,0,0,1.6,2.6c1.4,1.4,1.3,2.7.1,4.2s-.7,3.2,1.6,3.4,1.9,1.2,1.1,2.3a20.9,20.9,0,0,1-2,2.2L83.9,231l-.5-.8,5.1-4.1a1,1,0,0,0-.4-.5l-3.5,2.2H83.4c0-.5-.1-1.1.1-1.4s.9-.7,1.3-1.1a9.3,9.3,0,0,0,1.3-1.5l-.4-.4-1.3.8a13.7,13.7,0,0,1-1.8,1.6c-.5.2-1.1,0-1.7.1a6.9,6.9,0,0,1,.5-1.7A6.5,6.5,0,0,1,83,223l3.1-2.7-.4-.5a8.3,8.3,0,0,1-2.1,1.7,7,7,0,0,1-2.5.1,6.5,6.5,0,0,1,.8-1.7l2.8-3.2a2.8,2.8,0,0,0-1.2-.8,18.8,18.8,0,0,0-8.5-.5l-11.7,1.8c-.3.1-.6.6-1.2,1.1,2.1.7,3.9.8,5.5,1.8a22.7,22.7,0,0,1,7.4,6.7c3,4.7,5.9,9.6,6.6,15.3M30.8,185l-.7.3c1.8,6.6,2.9,13.6,7,19.3S44.6,216.5,51,220c-2.5-3.4-5.2-6.7-7.7-10s-5.4-6.1-7.1-9.6-3-8.5-4.5-12.8l-.9-2.6m-1.5-70.1h-.6a22,22,0,0,0-1.3,3.6c-.8,3.1-1.5,6.1-2.2,9.3a76.3,76.3,0,0,0-1.7,8.3,69.6,69.6,0,0,0,.3,7.9V155a8,8,0,0,0,.3,1.5h.5a17.9,17.9,0,0,0,.2-2.3c0-1.7-.3-3.4-.2-5.1.2-4.7.6-9.5.9-14.2.1-1.8.2-3.7.4-5.5s.9-2.2,1-3.4c.4-3,.6-5.9,2-8.7a9.3,9.3,0,0,0,.4-2.4M188.1,69l.5.4a13.4,13.4,0,0,0,3.2-4.2c.1-.3-.3-.9-.6-1.3a20.6,20.6,0,0,0-2.8-3.1,2,2,0,0,0-1.8.3c-1.4,1.7-2.7,3.6-4.1,5.5l-2.4,2.9.4.3,7.9-6.9.2.9-2.1,3.5.3.3,2.4-1.6c.2.2.4.3.5.5s-1,1.7-1.6,2.5M184,58.6c-4.6-1.5-8.4,1.4-7.8,6,2-.5,2.5-3.3,5.3-3.2l-1.2,1.7L179.2,65a9.5,9.5,0,0,0,4.8-6.4M63.5,60l-.5-.4-.9.8-4.6,4.3A24.4,24.4,0,0,0,54,68.4c-1.8,2.8-3.4,5.7-5,8.6a11.9,11.9,0,0,0-.8,2c2.6-3.2,4.7-6.7,7.2-9.9s5.4-6,8.1-9.1M81.1,81.8c0,1.7,9,13.4,11,14.7l1.1-.8c-4-4.7-7.9-9.1-12.1-13.9M27.6,132.4H28c1.7-6.6,3.5-13.3,5.4-20.4-.6.5-.9.7-1,.9s-1,2.6-1.4,3.9a36.8,36.8,0,0,0-1.5,4.7c-.8,3.2-1.4,6.5-2,9.8a2.1,2.1,0,0,0,.1,1.1M156.3,34.9c5.8,2.7,12.3,3,18.3,5-5.5-4-12.1-3.8-18.3-5m40.2,37.2c-2.3.1-7.5,6-7.6,8.5a15.5,15.5,0,0,0,7.6-8.5M185.6,87.4c-2.5,1-8.1,8-8,9.7,1.3,0,6.1-5.8,8-9.7M89.3,72.8c.2,4.6,3.5,7.2,6.2,10.1-2-3.4-3.5-7.1-6.2-10.1m119,168.1c-4.6.4-7.6,4.1-11.5,5.9,4-1.6,8.3-2.6,11.5-5.9M87.7,44.2c4.4-1,8.8-2.2,12.5-5.4-4.9.4-8.4,3.5-12.5,5.4M179.5,67l-.6-.4c-3.1,3.2-4.9,7.3-7.2,10.9l.8.6,7-11.1M105.6,93.1l.4-.5L98.8,80.3l-.5.2c.1.3.1.7.3.9L104,92a2.4,2.4,0,0,0,.6.8,3.8,3.8,0,0,0,1,.3M62.4,103l-.4.3c2,4.5,4.2,9,7.6,12.7l.6-.3L62.4,103m91.9-22.2.6.4,8.4-14.6-.5-.3c-3.9,4.2-5.1,10-8.5,14.5m69.6,144.1-.3-.4-7.3,7.2c3.9-.9,6.1-3.5,7.6-6.8M66.3,98.5l.6-.3c-1.2-3.1-3.4-5.6-5-8.7-.8,1.3-.8,2,0,3s3,4,4.4,6m105-32,.4.3,1.6-2.1,3-4.1c.2-.3,0-.9-.1-1.3a4.1,4.1,0,0,0-1.5.7,11.4,11.4,0,0,0-1,1.9l-2.4,4.6M70.5,91.3l.8-.6c-2-3-4.1-5.9-6.2-8.8l-.8.6,6.2,8.8m96.1-24.9.4.3,1.7-2.4c.4-.5.8-1.4,1.3-1.4,2.3.1,2.1-1.9,2.8-3.2-2.7,1.7-5.1,3.6-6.2,6.7m3.8,17.5c4-2.9,5.3-4.7,5.3-7.3l-5.3,7.3m74.8,28c-1.1-4.3-2-8.6-4.3-12.4h-.4c1.5,4.1,3.1,8.2,4.7,12.3M188.9,72.7a1,1,0,0,1,.5.4l4.1-4.8c.2-.2-.1-.8-.1-1.2s-.9.2-1,.4l-3.5,5.2M190,85.3c3.3-1.3,4.9-3.6,3.9-5.5L190,85.3m3.2,65.6c-3.4,1-4.6,2.1-4.8,4.6l4.8-4.6M86,47.8l-.3-.5c-2.2.2-5.7,1.9-6.3,3.5l6.6-3m96,27.8.4.2,4.4-6.3-.4-.3a13.2,13.2,0,0,0-4.4,6.4m6.9,19.9c-2.6.9-4.9,3.9-4,5.4,1.3-1.7,2.6-3.4,4-5.4M167.8,62.4l-.4-.5-6.3,3.6c2.4,1.2,2.9-2.9,5.1-1l1.6-2.1M109.7,37.2c2.3.7,6-.3,7.4-1.9l-7.4,1.9m42.8,41.1-.4-.3c-.5.8-1,1.5-1.4,2.3s-.7,1.9-1.4,2.5-1.2,1.1-.9,1.9l.7.3c1.1-2.3,2.3-4.5,3.4-6.7M225,222.9c2.3-1.5,4.5-3.1,5.1-6.1l-5.1,6.1m24.6-38.3c.7-2.5,1.3-4.4,1.9-6.4a6.6,6.6,0,0,0-1.9,6.4M79.1,84.9c1.1,1.9,2.1,3.8,3.1,5.8.8-3-1.6-4.2-3.1-5.8m81.5,181.9c.1.2.1.4.2.6l7.1-1.9c0-.2-.1-.3-.1-.5-2.2,1.2-5,.3-7.2,1.8M78,75l-.7.6L81.6,81c.1-.1.3-.2.4-.4Zm96.3-6.5.8.7,2.8-4.2-.7-.5c-.9,1.4-1.9,2.7-2.9,4m-106,9.8a17,17,0,0,1,1.9,2,7.6,7.6,0,0,1,1.1,2.2l.5-.2c-.4-1.1-.7-2.2-1.1-3.2s-.6-1.3-1-1.4-1.1.5-1.4.6m91.4,180.3c.1.2.1.4.2.6l5.9-1.5c0-.2-.1-.3-.1-.5-2,.6-4.3-.2-6,1.4M57.1,231.7l.6.7,4.2-3.7-.4-.5-4.4,3.5m121.1-158,.7.6,3.8-4.7-.5-.5-4,4.6m-57.3,96.2c-2,1.3-2.7,2.7-2.1,4,1.3-1,2.4-2.1,2.1-4M153.2,33.1c-1.8-1.7-3.9-2-4.9-.9l4.9.9M88.3,167.9l.6.2c.5-1.6,1-3.3,1.4-4.9l-.8-.2-1.2,4.9m14.3,83.6h3.1v-.4l-2.4-1.8-.7,2.2m3.7-50.4v.2a22.1,22.1,0,0,0,3.5,1.6c.3.1.7-.3,1.1-.5s-.5-.7-.9-.8l-3.7-.5m65.9,10.4c-2.6-.1-3.4.9-2.5,2.9l2.5-2.9M81.8,96l-.3.3,4,4.8.5-.5L81.8,96m77.3,177.9c1.5,1,2.8.3,4.5-.6-1.9-1-3.2.3-4.5.6M77.3,89.6l.7-.4-3.2-4.8-.5.3,3,4.9m112.8.2.5.4,3.7-4.4-.5-.5-3.7,4.5m-122.4,18c-.2.2-.4.3-.5.5l3.4,4.9.6-.4c-1.2-1.6-2.4-3.3-3.5-5M180,78.2l-.6-.5a4.6,4.6,0,0,0-2,3.1l.6.5,2-3.1M41.3,87.3l.7.4L44.9,83l-.6-.3-3,4.6M70.4,98.7l.5-.3-3.5-5.1-.4.3,3.4,5.1m32.7-59.9.2.6,5.5-1.4-.2-.5-5.5,1.3m15-5.3c1.9.2,3.9.4,5.3-1.1v-.5l-5.2,1.6m46.5,152.4.8.6,2.6-3.1-.5-.4-2.9,2.9m-32.5,53.3.5.6,3.8-3.7-.3-.4-4,3.5M127.3,33.6a1.3,1.3,0,0,1-.1-.6l-4.5,1.2a1.4,1.4,0,0,0,.2.6l4.4-1.2M194,155.1l-.3-.6-3.1,2.1.5.7,2.9-2.2M65.7,235.8l.2.2c-1.1.9-2.2,1.8-3.2,2.8l.5.6Zm82.4-75.3c2.2.1,2.4-.2,1.9-2.3l-1.9,2.3M70.1,55.6c-1.7-.1-2.8.8-3.1,2.9l3.1-2.9M210.3,237.3c2.2-.5,2.9-1.2,3.4-2.9l-3.4,2.9M169.1,75.2l-.5-.3-2.4,3.2.5.4Zm-17,194,.3.7,2.4-.7a.7.7,0,0,0,.3-.6c0-.1-.3-.4-.4-.3a26.7,26.7,0,0,0-2.6.9M74,244l-.4-.3c-2,.8-2,.9-1.9,2.7L74,244"/><path class="c" d="M109.4,205.2c-3.2,9.9-7.9,19.5-10.2,30a31.9,31.9,0,0,0-1.1-3.3c-1.2-2.7-2.1-5.5-3.8-7.8s-6-7.3-10.5-9.6-6.7-1.5-10.2-.9l-8.7,1.5a12.6,12.6,0,0,0-6.2,3.1,25,25,0,0,1-3.8,2.7l-8-9.6a26.6,26.6,0,0,0-3.4-4c-3.1-2.7-4.7-6.2-6.3-9.8C33.8,189.9,32,182,30.1,174c-.8-3.7-1.2-7.6-1.8-11.4a83.3,83.3,0,0,1-.8-8.6,43.9,43.9,0,0,1,.7-7.2c.3-3.5.5-7.1.9-10.6a47.7,47.7,0,0,1,1.3-5.1c.5-2.6.9-5.2,1.6-7.7a61.3,61.3,0,0,1,1.8-6.1c.6-2.2,1.3-4.4,2-6.6s2.1-7.2,3.5-10.6a48,48,0,0,1,3.9-7l4-6.8c1.9-3.2,3.8-6.4,5.5-9.7s3.7-4.5,5.6-6.8c.5-.6.8-1.5,1.4-2.1s2.4-2.5,3.5-3.8,2.4-2.9,3.7-4.3,1.4-.5,2.1-.9a6.4,6.4,0,0,0,1.9-1.3A8.4,8.4,0,0,0,72,55.3c1.5,1.6,2.8-.3,4.3-1.1l11.4-5.5c3-1.5,6.1-3.1,9.2-4.5a30.9,30.9,0,0,1,4.6-1.2c5.4-1.3,11-2.3,16.3-4,2.9-.9,5.8-.3,8.6-1.3l3.4-1,4.2-1h.5a27,27,0,0,0,3.4-1.7c-6.5.5-12.7,2.9-19.4,3l1-.4c4.6-1.3,9.4-2.4,14-3.8a22.6,22.6,0,0,1,11-.3L143,33.6l3.1.5c4.1,1.2,8.2,2.5,12.3,3.5s8.4,1.8,12.5,2.7c1,.2,1.9.7,2.8.9s1.9,1.3,2.9,0l1,.4,4.8,2.9c2.1,1.1,4.1,2.3,6.1,3.5l10.6,6,.6.5c0,.1-.1.3-.1.4l-2.7-.6a3.4,3.4,0,0,0,3.9,2.1,4.1,4.1,0,0,1,3.6,1,31.7,31.7,0,0,1,3.9,3.4c1,1,1.8,2.3,2.8,3.3,2.5,2.5,5.2,4.8,7.7,7.3a108.9,108.9,0,0,1,8.8,9.2c2.1,2.8,3.4,6.3,5.1,9.4.9,1.5,2,2.9,2.8,4.5s1.9,4.3,2.8,6.4,2.8,7,4.1,10.5a43.1,43.1,0,0,1,1.5,6.2c1.5,6.9,3.2,13.9,4.1,20.9a85.3,85.3,0,0,1,.5,20.2c-.5,5.2-.6,10.4-1.1,15.6a31.9,31.9,0,0,1-1.5,5.9c-1.3,4.5-2.4,9.1-4.1,13.5a70.2,70.2,0,0,1-13.5,22c-2.9,3.3-5.7,6.7-8.6,9.9a49.7,49.7,0,0,1-4.2,3.8c-3,2.7-5.9,5.6-9.1,8.1s-8.2,6.1-12.4,9a16.8,16.8,0,0,1-3,1.4c-.2-1.1-.4-1.8-.5-2.6a66.2,66.2,0,0,0-5.2-19c-1.3-3.1-2.2-6.4-3.5-9.4s-3.3-6.8-4.8-10.3a32.3,32.3,0,0,1-2.4-6.8c-.1-.7,1.2-2.1,2.2-2.7,2.9-1.8,6.1-3.2,9.1-5a30.7,30.7,0,0,0,4.8-4.1,79.8,79.8,0,0,0,5.8-7c2.4-3.3,5-6.7,5.4-11,1.8-1.6,1.1-3.8,1.2-5.8s.2-6.6.3-9.9.5-8.9.5-13.4a63.8,63.8,0,0,0-1-9.7,97.2,97.2,0,0,0-3.2-11.4c-1.1-3.4-2.8-6.6-4-10a9.8,9.8,0,0,0-3.9-5.3c.6-1.6,1.2-2.9,1.7-4.3,1.6-4,3.3-8,4.9-12.1l.2-.4c-1-2.6.8-4.8,1.1-7.2a1.8,1.8,0,0,0-.1-1.3c-1.9-1.2-.6-2.6-.3-3.9s.2-1.4-.1-1.5c-2-1.2-.7-2.4-.1-3.6s.5-.9.9-1.7l-1.5.3c-.6.1-1.5.4-1.8.1s-1.3-1.6-.6-2.7a15.5,15.5,0,0,0,1.4-2.9l-.3-.4-3.1,1.5c-1.4-1.5-2.5-3.1-4-4s-4.7-3.2-7.3-3.4a31.3,31.3,0,0,0-10.5,1c-5.3,1.2-9.8,4-13.9,7.4s-6.1,4.9-7.4,9-2.6,5.3-3.9,7.9a1.6,1.6,0,0,0-.3.8c.3,2.2-1.1,1.9-2.5,2-7.2.6-14.4,1.3-21.2,3.9a112.1,112.1,0,0,1-10.9,3.2h-1.5c-1.3-3.1-2.8-6.1-5.4-8.3l-.3-.2c-3.3-4.3-7.6-7.5-11.8-11-1.4-1.2-2.3-3.2-3.4-4.9s-.8-1.1-1.1-1.1a2.3,2.3,0,0,0-1.3,1.1,4.8,4.8,0,0,0-.4,1.8l-2.9-.5c-.3-.1-.6.2-.9.3a5.9,5.9,0,0,1,.4.8l1.2,3.4a14.6,14.6,0,0,1,.9,3.6,14.9,14.9,0,0,1-1.2-1.4l-2.9-4.7c-.7-1.1-.7-1.9,1.1-1.9-2.4-2-4.5-.8-6.7-.1a8.5,8.5,0,0,0-2.4.8c-1.1.7-2.4,1.4-3.5,2.2s-1.8,1.5-2.7,2.2-.4,1.3-1.5,1-.8,1.1-1.1,1.8-.5,1.5-1.8,1.2-1.8.1-1.2,1.4-.2,3.6-.6,5.3c-1,4.3-2.6,8.5-1.8,13a31.8,31.8,0,0,0,4.5,12.6,75.2,75.2,0,0,0,4.7,6.4,4,4,0,0,1,.7,4.6,22.7,22.7,0,0,0-1.7,11.5c.4,3.6.2,7.4.5,11a99.6,99.6,0,0,0,1.8,10.7c1.1,5.2,2.8,10.4,3.6,15.7s3.4,8.1,5.4,11.9,3.4,4.3,5.4,6.2c4.6,4.4,9.2,8.6,14.8,11.7,3.3,1.9,6.8,3.3,10.3,4.9"/><path class="d" d="M124.3,240.7c.4,2.4.6,2.5,3.3.7l-2.5,3.4c.5.2.9.7,1.2.6s1,0,.6.8l1.5.6a1.3,1.3,0,0,0,.9-.6c1.7-1.9,3.4-3.9,5.2-5.8a31.8,31.8,0,0,1,3.5-2.6l.5.6-2.3,2.6c-2.3,2.2-4.6,4.3-6.8,6.6-.3.3-.2.9-.4,1.3a3.6,3.6,0,0,0,1.4.2,1.4,1.4,0,0,1,1.2,1.9c-.2.4-.5.9-.4,1,1.5,1.6,1.1,3.2-.2,5.2l-21.9-4.1c1.4-1.5,1.4-1.5,4.3-.4,1.4-1.8.8-2.9-2-3.4l.4-.5c1.9-1.5,1.9-1.5-.1-2.8l-.6-.6c-.6-1.6-1.6-1.6-3-.8s-1.1-.2-1.7-.3a4.3,4.3,0,0,1,.4-1.7c.6-.8,2.1-1,1.5-2.4s-1.8-.4-2.7-.4l-2.9.2a37.8,37.8,0,0,1,.6-4.7c1.4-5.6,2.9-11.2,4.4-16.8a4.4,4.4,0,0,1,3.4-3.7l-2.2,3.2c.8,1.4,1.6.8,2.3,0s1.2-1.3,1.8-1.9l.4.3a9.5,9.5,0,0,0-1.1,2c-.1.3.2.8.3,1.2s1.2-.1,1.3-.4,1.8-1.9,3.2-.9a2,2,0,0,0,1.3.1c1.6-.8,3.2-1.5,4.7-2.4s.6-1.3.9-1.9a6.8,6.8,0,0,0-2-.2l-5.5,1.2c.2-.6.2-.8.3-1s.1-1.4.1-2a12,12,0,0,1-2,.3,3.1,3.1,0,0,1-1.3-.3,23.2,23.2,0,0,1-1.8-1.6c.6-.8,1.4-1.9-.9-2.4.3-.7.3-1.4.8-1.9a3.2,3.2,0,0,1,1.8-1c2.6-.1,5.3,0,7.9-.2.7-.1,1.4-.8,2.2-1.2,1.9,3.7,5.2,6.2,8.8,8a9,9,0,0,0,4.9.4,23.4,23.4,0,0,0,9.9-3.4,6.1,6.1,0,0,0,1.6-1.2,15.9,15.9,0,0,0,3.8-9.7,141.1,141.1,0,0,0,.8-15.9,88.5,88.5,0,0,1,.9-15.4,44.2,44.2,0,0,0-.1-8.9c-.4-5.4-.5-10.8-.4-16.3a59.4,59.4,0,0,1,1.4-10.3c1.1-4.9,3.5-5.5,7.6-5.1,1.5.1,3,.1,4.4.3a18.6,18.6,0,0,1,3.4.7c2.9.8,5.7,1.6,8.5-.1s3-3.7,2.8-5.2l-.3-2.9a5.2,5.2,0,0,0-4.4-4.9,15.9,15.9,0,0,1-3.3-1,11.5,11.5,0,0,0-7.1-.2,41.2,41.2,0,0,1-4.7,1.3c-2,.5-3,2-4.1,3.4a50.2,50.2,0,0,0-4.4,5.9c-1.2,2.1-2.4,4.4-1.4,7.1a1.2,1.2,0,0,1,.2.8c-.4,5.1-.6,10.1-1.1,15.2-.3,2.9-1,5.8-1.4,8.8-.2,1.3-.9,1.6-2.3,1.5a9,9,0,0,0,1-1.2,5.3,5.3,0,0,0,.3-1.2c-.4,0-1-.1-1.3.1-2.1,1.3-4.1,2.7-6.1,4.1l-.3-.3c1.5-1.5,3-3.1,4.6-4.5s1.2-1.3.2-2l-.5-.6c-.9-1.7-1.4-1.9-3.7-1.4l1.4-1.8-1.9-1.4a18.5,18.5,0,0,0-5.2,6.2,15.4,15.4,0,0,0-.8,3.4,37.9,37.9,0,0,1,2.2,3.6c.3.4.1,1.1.1,1.7s.1.8.1,1.2,1,0,1.3-.3,2.7-2.4,4.2-3.5.9-.5,1.3-.7l.3.4a17.7,17.7,0,0,0-1.6,2.2,2,2,0,0,0-.2,1.3c.4-.1,1-.1,1.3-.4l2.5-2.5.6.5-2.7,3.5a12.8,12.8,0,0,0-1.1,2,19.5,19.5,0,0,0,2.2-.8,29.2,29.2,0,0,0,2.8-2.1l.5.4-4.3,4.7c2.1.6,2.9-1.4,4.3-1.7s1.9,2.3,1.8,4.2c-.2,4,.3,8,.2,12s-.2,10.2-.7,15.2-1.4,7-4,9.8a9.4,9.4,0,0,1-6.7,3.3c-3,.1-6.2.3-8.8-1.8s-4.7-3.9-5.8-7a8.3,8.3,0,0,1-.3-2.8c-.3-4.5-.5-8.9-.7-13.4-.1-2.8-.1-5.7-.2-8.5l-.6-11.5c-.2-3.8-.1-7.7-.8-11.4a27.2,27.2,0,0,0-3.3-9.7,91.8,91.8,0,0,0-10.4-12.9c-2.2-2.2-5.3-3.6-8.1-5.3-1.2-.8-2.6-1.3-3.9-2s-2.5-.9-3.7.2h-.8c-.7-.2-1.7-.7-2.1-.4-2.2,1.3-5,1.5-6.2,4.1a17.4,17.4,0,0,0-.5,2.2c-.7,5.1,1,7.5,5.8,9.1s7.1.1,10.2-1.5,7.2-2.3,10.7-.4a13.8,13.8,0,0,1,3.4,3c1.2,1.4,2.2,2.9,3.3,4.4,2.4,3.3,3.1,7.2,3.6,11s.2,6,.2,9.1v3c-2.2-.4-2.3,2.4-4.4,2.9a11.4,11.4,0,0,1,1.2-2.2c.7-.7,1.1-1.3.4-2s-1.3.1-1.8.5a6,6,0,0,1-1.3.8c.7-1.4,1.2-2.4,1.6-3.4a4.4,4.4,0,0,0-.2-1.6,3.4,3.4,0,0,0-1.4.5l-2.6,2.2-.5-.4a23.9,23.9,0,0,1,2.1-3.4c1.2-1.2.4-2.6.8-3.9a2.3,2.3,0,0,0-1.4-.6,7.7,7.7,0,0,0-2.4,1.2c-1.6,1.1-1.6,2,0,3.2l-2.1,2.9c-.6,1-1.8,2-.6,3.4s-.1.8-.4,1.2l-1.9,3c-.2.4.1,1,.2,1.5s.8-.4,1-.7,1.6-3.6,4.2-4.2c-1.2,2.3-2.3,4.3-3.5,6.3l.3.5,2.8-1.2.2.3c-.5.7-1.1,1.3-1.6,2.1s-.7,1.5.2,2,1.1-.1,1.7-.3a7.6,7.6,0,0,1,2.2-1.1c-.1.3-.3.5-.3.8s.1,1,.4,1.2.9.1,1.2-.1a32,32,0,0,1,2.7-2.2c-.1,2.4,1,3.6,3.2,3.9.3,0,.7,1.3.7,2-.1,4-.5,7.9-.3,11.9a26.7,26.7,0,0,0,1.5,6.2c.2.9.5,1.8-.7,1.9-2.9.4-5.8.6-8.8.9,0-.3-.1-.6-.1-.9l6.1-1.1c0-.3-.1-.5-.1-.8a4.4,4.4,0,0,1-1.9.3c-7.4-1-14.9-2-21.4-6-4.9-3-8.8-7.1-12.7-11.4s-3.8-7.1-5.2-10.9a8.7,8.7,0,0,0-1-2.4c-.9-1.3-.1-2.3-.1-3.5l.5-.2.7,1,2.4.3a1.6,1.6,0,0,0,.9-.7,7.6,7.6,0,0,1,.6-1.8l.6,1.3c.5.9,1,2,2.4,1.1a.6.6,0,0,1,.8,0,37,37,0,0,1,3.6,3.3c.2.2-.1.9-.4,1.2a2.6,2.6,0,0,1-1.2.5c-2.7.7-2.9.9-3.2,3.6l3.3,2.4h.4a2,2,0,0,0,.8-.4c1.1-1.2,3.6-.6,3.8-3.1a4.5,4.5,0,0,1,.9-2.5c1.3-1.9.5-4.1,1-6.1v-.2c-1.5-1.1-1.3-2.8-1.3-4.4a13.4,13.4,0,0,0-.1-2,12.7,12.7,0,0,0-.6-1.8l-1.7.5-1.5,1.3-2.6-1.8-1.2-2.3h-.5l-1.2,4.7h-.4a15.4,15.4,0,0,0-.4-3c-.1-.6-.6-1.6-.8-1.6a3.5,3.5,0,0,0-2.3,1,15.2,15.2,0,0,0-1.5,3.4c-.2-1.3-.3-2.4-.5-3.4h-.4l-3.7,4.7a12,12,0,0,1-.6-1.7c-.7-3.9-1.3-7.7-1.9-11.6l-1.5-10.2c-.1-1.2-.3-2.5-.3-3.7,0-3.7,0-7.4.1-11.1,0-2.2.9-3.5,2.5-3.8a12.4,12.4,0,0,1,.4-1.6c1.7.7,2.9.7,2.5-1.7-.1-.6.7-1.3,1.1-1.9l2.7,1.4a1,1,0,0,1,.5-.4l-1.6-5.3,2-.6c.9-.3,2.1-.4,1.1-1.9a1.5,1.5,0,0,1,.4-1.1c.5-.1,1.3-.2,1.6.1s2.2,2.3,3.5,3.7c1.5-2.9-1.4-4-2.1-6.1,1.5.1,3,.2,2.1-1.9l2.9-1.4,3.4,4.8.7-.2a4.9,4.9,0,0,0-.1-1.7c-.6-1.1-1.4-2.2-2.1-3.3l.3-.4a4.6,4.6,0,0,0,1.4.7l1.9.4c-.1-.7,0-1.4-.1-2.1s-.2-.5-.5-1l3.9,1.5,1.7.2c2.2-.2,2.2-.3,1.2-2.3l-.3-.4c2.1-2.4,3.3-2.4,6.2.8a11.8,11.8,0,0,0,0-1.9,10.4,10.4,0,0,0-.6-1.6l.6-.5,1.4,2.7,3.1-3.3.4.3c-.2.4-.3.8-.7,1.8l4.6-1.9,3.5-1.7c2.7-1,5.5-2,8.3-2.8s4.7-.9,7-1.4l4.4-.8c2.9-.4,5.7-.8,8.6-.2-.2,1-.3,1.8-.5,2.6l.8.3a14.7,14.7,0,0,1,1-2.2c.5-1.1,1.2-.9,2-.3a22.4,22.4,0,0,0-1.1,3.4c-.2,1.3.5,1.7,1.7,1.1l4.7-2.5c.1,2.3.2,2.4,3.6,1.3-.6,1-1.3,1.9-1.8,2.9a3.9,3.9,0,0,0-.2,1.5,3,3,0,0,0,1.6-.5,14.1,14.1,0,0,0,1.8-2.3,1.5,1.5,0,0,1,1.4-.3l-2.1,4.3c1.3,1,2.1.5,2.8-.5s.3-.8.6-.9A20.4,20.4,0,0,1,166,94a7.5,7.5,0,0,1,.5,1.6c.2.8.3,1.6.6,2.8a21.3,21.3,0,0,1,2.2-2.1,4.4,4.4,0,0,1,1.5-.8,3.2,3.2,0,0,1-.2,1.4c-.6,1.1-.4,1.6.8,1.4h.7c1.3,1.3,2.5,1.3,3.9,0s1.6,0,1.3,1.2a8.6,8.6,0,0,0,0,1.6c.4-.3.6-.7,1-.9a3.5,3.5,0,0,1,1.1-.3c0,.3.1.7-.1.9s-.5.9-.6,1.4a4.3,4.3,0,0,0-.1,1.6l1.9-.4c.3-.1.5-.6.6-.9s1.1-1.6,2.2-.9,1.5,1.2.7,2.3,0,.7,0,1.1,1,0,1.2-.3,2-.9,2.6.4.3.5.5.5c3.9,1,5.2,4.5,6.5,7.5a54.1,54.1,0,0,1,4.7,16.7c.7,7.6,2.1,15.2,1.8,22.9,0,.8-.1,1.6-.1,2.4s-.3,1.8-2.5,2l1.8-2.1c-1.5-1.8-2.9.7-4.7,0l4.3-3.7a7.2,7.2,0,0,0-2.1,0,31.1,31.1,0,0,1-5.6,2.2l3.8-4.2a6.7,6.7,0,0,0,.6-1.5c-.5,0-1.1-.2-1.5,0s-2.1,1-3.2,1.5l1-2-2.1-.7,3-3.2c-2.7-.3-4.2,1.8-6.7,2.3l3.3-4.4-.3-.4c-2.2,0-3.4,2.1-5.2,2.9l-1.7-1.9,1.3-1.7a.8.8,0,0,0,0-.7c-.2-.2-.6-.3-.7-.2l-7,6.6c-.1.1,0,.3,0,.4,1.5,1.1,2.9.8,4.2-.8l.3.7-4.2,4.9a5.5,5.5,0,0,0-.6,1.8,5.9,5.9,0,0,0,2-.6c1.2-1,2.2-2.1,3.3-3.2l.4.5c-1,1.2-2.1,2.4-3.2,3.5s-1.7,1.9.4,2.7c-.4.5-.9.8-1.1,1.2a2.9,2.9,0,0,0-.1,1.3c.4-.1,1-.1,1.3-.4l5.2-5.3a4.1,4.1,0,0,1,1.1-.7c.2.2.4.3.5.5l-6.9,7.7.3.6a6.9,6.9,0,0,0,1.5-.7l4.4-4.2c1,1.1.8,1.7-.1,2.5s-2.2,2.2-3.2,3.3a8.9,8.9,0,0,0-.8,1.7,1,1,0,0,1,.4.5,6.4,6.4,0,0,0,1.6-1.1c1.3-1.2,2.5-2.6,3.8-3.9a5.5,5.5,0,0,1,1.8-.6l.3.6-5,5.2,1.2,1c2.4-2.3,4.4-4.9,7.6-6l.4.5a41.2,41.2,0,0,0-3.1,2.8c-.7,1-2.7,1.6-1.4,3.6l3-2.2.2.3c0,.2-.2.4-.2.6a5.7,5.7,0,0,1-.1,1.3c.5,0,1.1.2,1.4,0l4-3.1a17.7,17.7,0,0,0-.4,3l1.8.4a12.1,12.1,0,0,1,.9,2c.1.6.4,1.6.1,2.1-1.4,2.7-3,5.4-4.5,8.1h-.1c-1.6,3.9-5.5,5.5-8.5,8-1,.8-2.1,1.6-3.3.2a1.4,1.4,0,0,0-.9-.3l-4.8.9a28,28,0,0,0-2.5-3.6c-.2-.3-1-.3-1.4-.1a9.8,9.8,0,0,0-2.2,1.3c-1.1-1.1-.3-2,.2-2.7s1-1.6-.6-1.6-.4-.2-.7-.3-1.1-.7-1.6-.6-1.7-.3-1-1.4,1.3-1.6,1.8-2.4a13.9,13.9,0,0,0,.6-1.9l-1.8.2c-.3.1-.7.5-.9.4-3.3-1.5-4.4,1.5-6.1,3.1s-.1,1.5.7,1.8l2,.8c-1.4,3.2-2.7,6.2-4.1,9.2l.6.4c.4-.3.7-.7,1.2-.8h1.6c0,.4.1,1-.1,1.3s-1.1,1.5-1.5,2.3a3.4,3.4,0,0,0-.2,1.4l1.5.2c.5,1.3,1.1,1.5,2.3.6a1.8,1.8,0,0,1,2.3-.2c2.4,1.7,3.1,1.4,4.9-.9s2.2-2.3,3.3-3.5l.5.3a14.2,14.2,0,0,1-.8,1.8c-1.1,1.5-1.1,1.5.8,3.3l-1.5.6c-4.8,2.1-9.8,3.6-15.1,3.3a58.3,58.3,0,0,0-5.9.3l-.8.5a1.7,1.7,0,0,0,.6,1,2.5,2.5,0,0,0,1.3.3c3.6-.1,7.2-.1,10.8-.4a15.7,15.7,0,0,0,4.6-1.2c1.4-.5,2.1-.2,2.5,1.1,1.1,3.3,2.2,6.6,3.4,9.8s2.9,6.4,4.3,9.6c.2.4-.1,1-.2,1.5s-1.1-.4-1.3-.8-2-1.8-1.1-3.3-.2-.6-.4-.8a16,16,0,0,1-3.8-6.7c-.1-.4-.9-.8-1.4-.9s-1.9.2-2.8-.8a2,2,0,0,0-2.9.2c-1.8,2.1-3.7,4.2-5.5,6.4-.3.3-.2.9-.3,1.4s-.5,1.5-.7,2.5,1.4.4,2.1-.6a27,27,0,0,1,2.8-3.1c0,1.6,0,3.1-1.3,4.2s-.5,1.2-.7,1.8h2c1.6,1.4,1.7,1.4,3.7-.7a2.4,2.4,0,0,1,1.5-.8c-.1.2-.1.6-.2.7s-.5,2.1-.1,3.1,1.6.8,2.6.8,2.2,0,2.4.4,1.2,2.4-.5,3.6a8,8,0,0,0-1.8,3,1.4,1.4,0,0,0,.5,1.3c.3.3,1,.2,1.4,0a14.4,14.4,0,0,0,6.1-4.6c.4-.5,1.2-.7,2.2-1.3,1.2,3.6,2.6,7.1,3.5,10.6s1,7.2,1.5,10.6c-1.8.8-3,1.4-4.4,1.9s-1.6.6-2.4-.7c-2.3-3.4-5-6.5-7.5-9.8h.1a14,14,0,0,0-6-5.3h.1c-1.4-2.4-3.9-2.4-6.2-2.9s-5.9.4-8.8.8a3.7,3.7,0,0,0-1.2.7l-3.6,2.5a4.3,4.3,0,0,0-1.2,1.1c-2.1,3.7-4.3,7.4-6,11.2-1,2.2-1.3,4.7-1.9,7.1s-.5,1.5-1.7,1.4a16.6,16.6,0,0,0-3.1-.1c.6-1.5,1.5-3.1,1.6-4.7a21.1,21.1,0,0,1,1.5-5.6,8.6,8.6,0,0,1,.7-1c.7-1.3,1.5-2.6,2.2-4s.1-.6,0-.8-.4-1.4.2-2.1.3-1.8-.7-2.4l-1.4-1.1c-1.2-1.3-2.3-2.7-3.5-4.1l-1.8.7c0-.2.1-.3.1-.4l-4.4-1.9c-.1-.7,1.6-1.8-.4-2.6-1.9,1.4-3.7,3.3-6,4.1s-3.5,2.9-5.2,4.4a6.7,6.7,0,0,0-.9,1.4l.2.3,2.1-.7-.3,3.6,2.7,1.9c-.5.3-.9.4-1,.6s-.7,1.2-.5,1.5,1.3.3,1.9-.3l2.9-2.4ZM129,118.4c-1-.7-1.8-1.8-2.5-1.7a7.7,7.7,0,0,0-2.8,1.5,2,2,0,0,0-.6,1.5c.1.4.8.6,1.3.9l2.8,1.6c.6.3,1.5.7,2,.5a70.9,70.9,0,0,0,7.8-3.9c2.6-1.6,5.1-3.4,4.4-7.2a2.4,2.4,0,0,1,1-1.8c2.1-1.6,2.1-1.6,1.2-3.4a7,7,0,0,0,.4-2.3c0-.2-1.1-.2-1.7-.4a4.6,4.6,0,0,1-1.4-.7c-1.8-1-3.9-1.2-5.9-2h-.1c-1.6.6-2.6.2-3.5-1.3a1.9,1.9,0,0,0-1.4-.9,40.5,40.5,0,0,0-5,.4c-2.6.3-4.6,2.9-7.6,1.7-2.3,1.6-4.5,3.2-5.3,6.2l4.7-1,1.1.8-.5,1.4c2.1.5,3.4-2.7,5.7-.8a4.5,4.5,0,0,0-1,.9,1.7,1.7,0,0,0,0,1.4,3.8,3.8,0,0,0,4.7.9,15.5,15.5,0,0,1,2.3-.8c.1.2.2.3.2.4s-.7,1.1-.9,1.6l2.5,2.4c1.6,1.4,1.9-1.2,3.1-.9l.2.2-5.2,4.7m4,85.5.5.4,2.6-1.5c2.2,1.6,4.6,3,7.5,1.9.5-.1,1.3-.2,1.3-.4a9.1,9.1,0,0,0,.1-2.3c-2,2.1-5.2,2.5-7,.6a4.8,4.8,0,0,1-1.2-3.1c0-.3,1.3-.7,2-1.1s.6-.2.7-.4c1.4-2.2,3.7-3.9,3.4-7.1-.1-1.5-.6-2.2-2-2.4-3.5-.6-7.1-.9-10.4,1.2a2.7,2.7,0,0,0-1.5,2.2c.1,1.6.4,3.1,2.1,3.9a1.1,1.1,0,0,1,.8.9c.2,1.1.6,1.8,1.9,1.5s1,.8.9,1a23,23,0,0,1-1,3.5,7.5,7.5,0,0,1-.7,1.2m4,16.3,4,1.4.4.3c1.6,1.4,5.5,1.7,7.3.6a12.5,12.5,0,0,0,2.4-1.6,3.1,3.1,0,0,0,1.1-1.9c0-1-3.1-2.6-4.2-2.4l-3.6.7a31.7,31.7,0,0,0-1.7-4.1c-.1-.3-1.3-.3-1.7-.1s-2.1,2.1-3.1,3.2a3.7,3.7,0,0,0-.7,1.4c-.1.7-.1,1.5-.2,2.5m-8.9-19.5h-.6a6.4,6.4,0,0,0,.3,2c.5,1,3.6,1.7,4.9,1.1-2.4-.1-4.1-.8-4.6-3.2"/><path class="d" d="M173.9,239.7c-.1,2.5,2.2,3.4,3.1,5.3a37.8,37.8,0,0,0,2.2,3.3c1,1.6.1,3-2.3,3.3l-10.1,1.3c-.4,0-.9.1-1.2-.1-2.4-1.3-4.6,0-6.9.4a48.7,48.7,0,0,1-5.4.2c-2.8,0-5.5,0-8.1-1.2-.9-.4-2.1-.1-3.3-.1a2.6,2.6,0,0,1,.1-1.2c1.6-3.8,3.1-7.7,5-11.4,1-1.7,2-3.7,4.3-4.4.7-.1,1.1-.9,1.7-1.1s3.4-.7,5-1.3c3.3-1.2,6.1.5,9,1.7l1.1.2H168a8.8,8.8,0,0,0,1.2,1.5l4.8,3.8Z"/><path class="d" d="M81.6,242.1c-.7-5.7-3.6-10.6-6.6-15.3a22.7,22.7,0,0,0-7.4-6.7c-1.6-1-3.4-1.1-5.5-1.8.6-.5.9-1,1.2-1.1L75,215.4a18.8,18.8,0,0,1,8.5.5,2.8,2.8,0,0,1,1.2.8l-2.8,3.2a6.5,6.5,0,0,0-.8,1.7,7,7,0,0,0,2.5-.1,8.3,8.3,0,0,0,2.1-1.7l.4.5L83,223a5.1,5.1,0,0,0-1.6,1.3,6.9,6.9,0,0,0-.5,1.7c.6-.1,1.2.1,1.7-.1a13.7,13.7,0,0,0,1.8-1.6l1.3-.8.4.4-1.3,1.5c-.4.4-1,.6-1.3,1.1s0,.9-.1,1.4h1.2l3.5-2.2a1,1,0,0,1,.4.5l-5.1,4.1.5.8,6.9,3.9a20.9,20.9,0,0,0,2-2.2c.8-1.1.2-2.1-1.1-2.3s-2.9-1.6-1.6-3.4,1.3-2.8-.1-4.2a29.6,29.6,0,0,1-1.6-2.6,2.8,2.8,0,0,1,1.1.4c2.4,3,5.3,5.7,6.5,9.7s2.5,7,2.8,10.7c.1,1.5-.2,2.9-.2,4.3s-.4,2.5,1.6,2.8.9,1.6,1.3,2.4l-.5.4-5.1-3.1c-3.6-2.2-7.1-4.7-11.3-5.6a10,10,0,0,0-3-.1"/><path class="d" d="M30.8,185l.9,2.6c1.5,4.3,2.5,8.8,4.5,12.8s4.6,6.4,7.1,9.6,5.2,6.6,7.7,10c-6.4-3.5-9.9-9.8-13.9-15.4s-5.2-12.7-7-19.3l.7-.3"/><path class="d" d="M29.3,114.9a9.3,9.3,0,0,1-.4,2.4c-1.4,2.8-1.6,5.7-2,8.7-.2,1.2-.8,2.3-1,3.4s-.3,3.7-.4,5.5c-.3,4.7-.7,9.5-.9,14.2-.1,1.7.2,3.4.2,5.1a17.9,17.9,0,0,1-.2,2.3h-.5a8,8,0,0,1-.3-1.5V143.9a69.6,69.6,0,0,1-.3-7.9,76.3,76.3,0,0,1,1.7-8.3c.7-3.2,1.4-6.3,2.2-9.3a22,22,0,0,1,1.3-3.6h.6"/><path class="d" d="M188.1,69c.6-.8,1.1-1.7,1.6-2.5s-.3-.3-.5-.5l-2.4,1.6-.3-.3,2.1-3.5-.2-.9-7.9,6.9-.4-.3,2.4-2.9c1.4-1.9,2.7-3.8,4.1-5.5a2,2,0,0,1,1.8-.3,20.6,20.6,0,0,1,2.8,3.1c.3.4.7,1,.6,1.3a13.4,13.4,0,0,1-3.2,4.2l-.5-.4"/><path class="d" d="M184,58.6a9.5,9.5,0,0,1-4.8,6.4l1.1-1.9,1.2-1.8c-2.8,0-3.3,2.8-5.3,3.3-.6-4.6,3.2-7.5,7.8-6"/><path class="d" d="M63.5,60c-2.7,3.1-5.6,5.9-8.1,9.1s-4.6,6.7-7.2,9.9a11.9,11.9,0,0,1,.8-2c1.6-2.9,3.2-5.8,5-8.6a24.4,24.4,0,0,1,3.5-3.7l4.6-4.3.9-.8Z"/><path class="d" d="M81.1,81.8c4.2,4.8,8.1,9.2,12.1,13.9l-1.1.8c-2-1.3-11-13-11-14.7"/><path class="d" d="M27.6,132.4a2.1,2.1,0,0,1-.1-1.1c.6-3.3,1.2-6.6,2-9.8a36.8,36.8,0,0,1,1.5-4.7c.4-1.3.9-2.6,1.4-3.9s.4-.4,1-.9c-1.9,7.1-3.7,13.8-5.4,20.4h-.4"/><path class="d" d="M156.3,34.9c6.2,1.2,12.8,1,18.3,5-6-2-12.5-2.3-18.3-5"/><path class="d" d="M196.5,72.1a15.5,15.5,0,0,1-7.6,8.5c.1-2.5,5.3-8.4,7.6-8.5"/><path class="d" d="M185.6,87.4c-1.9,3.9-6.7,9.7-8,9.7-.1-1.7,5.5-8.7,8-9.7"/><path class="d" d="M89.3,72.8c2.7,3,4.2,6.7,6.2,10.1-2.7-2.9-6-5.5-6.2-10.1"/><path class="d" d="M208.3,240.9c-3.2,3.3-7.5,4.3-11.5,5.9,3.9-1.8,6.9-5.5,11.5-5.9"/><path class="d" d="M87.7,44.2c4.1-1.9,7.6-5,12.5-5.4-3.7,3.2-8.1,4.4-12.5,5.4"/><path class="d" d="M179.5,67l-7,11.1-.8-.6c2.3-3.6,4.1-7.7,7.2-10.9Z"/><path class="d" d="M105.6,93.1a3.8,3.8,0,0,1-1-.3,2.4,2.4,0,0,1-.6-.8L98.6,81.4c-.2-.2-.2-.6-.3-.9l.5-.2L106,92.6l-.4.5"/><path class="d" d="M62.4,103l7.8,12.7-.6.3c-3.4-3.7-5.6-8.2-7.6-12.7l.4-.3"/><path class="d" d="M154.3,80.8c3.4-4.5,4.6-10.3,8.5-14.5l.5.3-8.4,14.6-.6-.4"/><path class="d" d="M223.9,224.9c-1.5,3.3-3.7,5.9-7.6,6.8l7.3-7.2.3.4"/><path class="d" d="M66.3,98.5c-1.4-2-2.8-4.1-4.4-6s-.8-1.7,0-3c1.6,3.1,3.8,5.6,5,8.7l-.6.3"/><path class="d" d="M171.3,66.5l2.4-4.6a11.4,11.4,0,0,1,1-1.9,4.1,4.1,0,0,1,1.5-.7c.1.4.3,1,.1,1.3l-3,4.1-1.6,2.1-.4-.3"/><path class="d" d="M70.5,91.3l-6.2-8.8.8-.6,6.2,8.8-.8.6"/><path class="d" d="M166.6,66.4c1.1-3.1,3.5-5,6.2-6.7-.7,1.3-.5,3.3-2.8,3.2-.5,0-.9.9-1.3,1.4L167,66.7l-.4-.3"/><path class="d" d="M170.4,83.9l5.3-7.3c0,2.6-1.3,4.4-5.3,7.3"/><path class="d" d="M245.2,111.9c-1.6-4.1-3.2-8.2-4.7-12.3h.4c2.3,3.8,3.2,8.1,4.3,12.4"/><path class="d" d="M188.9,72.7l3.5-5.2c.1-.2.6-.3,1-.4s.3,1,.1,1.2l-4.1,4.8a1,1,0,0,0-.5-.4"/><path class="d" d="M190,85.3l3.9-5.5c1,1.8-.6,4.2-3.9,5.5"/><path class="d" d="M193.2,150.9l-4.8,4.6c.2-2.5,1.4-3.6,4.8-4.6"/><path class="d" d="M86,47.8l-6.6,3c.6-1.6,4.1-3.3,6.3-3.5l.3.5"/><path class="d" d="M182,75.6a13.2,13.2,0,0,1,4.4-6.4l.4.3-4.4,6.3-.4-.2"/><path class="d" d="M188.9,95.5c-1.4,2-2.7,3.7-4,5.4-.9-1.5,1.4-4.5,4-5.4"/><path class="d" d="M167.8,62.4l-1.6,2.1c-2.2-1.9-2.7,2.2-5.1,1l6.3-3.6.4.5"/><path class="d" d="M109.7,37.2l7.4-1.9c-1.4,1.6-5.1,2.6-7.4,1.9"/><path class="d" d="M152.5,78.3c-1.1,2.2-2.3,4.4-3.4,6.7l-.7-.3c-.3-.8.1-1.2.9-1.9s.9-1.7,1.4-2.5.9-1.5,1.4-2.3l.4.3"/><path class="d" d="M225,222.9l5.1-6.1c-.6,3-2.8,4.6-5.1,6.1"/><path class="d" d="M79.1,84.9c1.5,1.6,3.9,2.8,3.1,5.8-1-2-2-3.9-3.1-5.8"/><path class="d" d="M124.4,240.7c1.9-2,3.9-4,5.9-5.9l.6.6a29.8,29.8,0,0,1-2.7,2.3l-3.9,3h.1"/><path class="d" d="M160.6,266.8c2.2-1.5,5-.6,7.2-1.8,0,.2.1.3.1.5l-7.1,1.9c-.1-.2-.1-.4-.2-.6"/><path class="d" d="M78,75l4,5.6c-.1.2-.3.3-.4.4l-4.3-5.4L78,75"/><path class="d" d="M174.3,68.5l2.9-4,.7.5-2.8,4.2-.8-.7"/><path class="d" d="M68.3,78.3c.3-.1.9-.7,1.4-.6s.8.9,1,1.4.7,2.1,1.1,3.2l-.5.2a7.6,7.6,0,0,0-1.1-2.2,17,17,0,0,0-1.9-2"/><path class="d" d="M159.7,258.6c1.7-1.6,4-.8,6-1.4,0,.2.1.3.1.5l-5.9,1.5c-.1-.2-.1-.4-.2-.6"/><path class="d" d="M57.1,231.7l4.4-3.5.4.5-4.2,3.7-.6-.7"/><path class="d" d="M178.2,73.7l3.9-4.6.6.5-3.8,4.7-.7-.6"/><path class="d" d="M120.9,169.9c.3,1.9-.8,3-2.1,4-.6-1.3.1-2.7,2.1-4"/><path class="d" d="M153.2,33.1l-4.9-.9c1-1.1,3.1-.8,4.9.9"/><path class="d" d="M88.3,167.9l1.2-4.9.9.2-1.5,4.9Z"/><path class="d" d="M102.6,251.5l.7-2.2,2.4,1.8v.4Z"/><path class="d" d="M106.3,201.1l3.7.5c.4.1.6.5.9.8s-.8.6-1.1.5a22.1,22.1,0,0,1-3.5-1.6Z"/><path class="d" d="M172.2,211.5l-2.5,2.9c-.9-2-.1-3,2.5-2.9"/><path class="d" d="M81.8,96l4.2,4.6-.5.5-4-4.8.3-.3"/><path class="d" d="M159.1,273.9c1.3-.3,2.6-1.6,4.5-.6-1.7.9-3,1.6-4.5.6"/><path class="d" d="M77.3,89.6l-3-4.9.5-.3L78,89.2l-.7.4"/><path class="d" d="M190.1,89.8l3.7-4.5.5.5-3.7,4.4-.5-.4"/><path class="d" d="M67.7,107.8c1.1,1.7,2.3,3.4,3.5,5l-.6.4-3.4-4.9c.1-.2.3-.3.5-.5"/><path class="d" d="M180,78.2l-2,3.1-.6-.5a4.6,4.6,0,0,1,2-3.1l.6.5"/><path class="d" d="M41.3,87.3l3-4.6.6.3c-1,1.6-2,3.1-2.9,4.7l-.7-.4"/><path class="d" d="M70.4,98.7,67,93.6l.4-.3,3.5,5.1Z"/><path class="d" d="M103.1,38.8l5.5-1.3.2.5-5.5,1.4Z"/><path class="d" d="M118.1,33.5l5.2-1.6v.5c-1.4,1.5-3.4,1.3-5.3,1.1"/><path class="d" d="M164.6,185.9l2.9-2.9.5.4-2.6,3.1-.8-.6"/><path class="d" d="M132.1,239.2l4-3.5.3.4-3.8,3.7-.5-.6"/><path class="d" d="M127.3,33.6l-4.4,1.2c-.1-.2-.1-.4-.2-.6l4.5-1.2a1.3,1.3,0,0,0,.1.6"/><path class="d" d="M194,155.1l-2.9,2.2-.5-.7,3.1-2.1Z"/><path class="d" d="M65.7,235.8l-2.5,3.6-.5-.6c1-1,2.1-1.9,3.2-2.8l-.2-.2"/><path class="d" d="M148.1,160.5l1.9-2.3c.5,2.1.3,2.4-1.9,2.3"/><path class="d" d="M70.1,55.6,67,58.5c.3-2.1,1.4-3,3.1-2.9"/><path class="d" d="M210.3,237.3l3.4-2.9c-.5,1.7-1.2,2.4-3.4,2.9"/><path class="d" d="M169.1,75.2l-2.4,3.3-.5-.4,2.4-3.2.5.3"/><path class="d" d="M152.1,269.2a26.7,26.7,0,0,1,2.6-.9c.1-.1.5.2.4.3s-.1.6-.3.6l-2.4.7-.3-.7"/><path class="d" d="M74,244l-2.3,2.4c-.1-1.8-.1-1.9,1.9-2.7l.4.3"/><path d="M129,118.4l5.2-4.7-.2-.2c-1.2-.3-1.5,2.3-3.1.9l-2.5-2.4c.2-.5.6-1,.9-1.6l-.2-.4a15.5,15.5,0,0,0-2.3.8,3.8,3.8,0,0,1-4.7-.9,1.7,1.7,0,0,1,0-1.4,4.5,4.5,0,0,1,1-.9c-2.3-1.9-3.6,1.3-5.7.8l.5-1.4-1.1-.8-4.7,1c.8-3,3-4.6,5.3-6.2,3,1.2,5-1.4,7.6-1.7a40.5,40.5,0,0,1,5-.4,1.9,1.9,0,0,1,1.4.9c.9,1.5,1.9,1.9,3.5,1.3h.1c2,.8,4.1,1,5.9,2a4.6,4.6,0,0,0,1.4.7c.6.2,1.7.2,1.7.4a8,8,0,0,1-.4,2.4c.9,1.7.9,1.7-1.2,3.3a2.4,2.4,0,0,0-1,1.8c.7,3.8-1.8,5.6-4.4,7.2a70.9,70.9,0,0,1-7.8,3.9c-.5.2-1.4-.2-2-.5l-2.8-1.6c-.5-.3-1.2-.5-1.3-.9a2,2,0,0,1,.6-1.5,7.7,7.7,0,0,1,2.8-1.5c.7-.1,1.5,1,2.5,1.7m4.8-7.8c2.8-.5,8-4.1,8.2-5.5-2.3-.1-7,3-8.2,5.5m-4-2.3a22,22,0,0,0,8.6-4.4c-3.5.3-5.9,2.6-8.6,4.4m4.1-5.1-.5-.6c-1.6,1.6-4.3,1.8-5.3,4.1l.5.5,5.3-4m-4.9-.1-.5-.7-4.1,2.5a1.6,1.6,0,0,1,.4.7l4.2-2.5"/><path d="M133,203.9a7.5,7.5,0,0,0,.7-1.2,23,23,0,0,0,1-3.5c.1-.2-.6-1-.9-1s-1.7-.4-1.9-1.5a1.1,1.1,0,0,0-.8-.9c-1.7-.8-2-2.3-2.1-3.9a2.7,2.7,0,0,1,1.5-2.2c3.3-2.1,6.9-1.8,10.4-1.2,1.4.2,1.9.9,2,2.4.3,3.2-2,4.9-3.4,7-.1.3-.4.4-.7.5s-2,.8-2,1.1a5.4,5.4,0,0,0,1.2,3.1c1.8,1.9,5,1.5,7-.6a9.1,9.1,0,0,1-.1,2.3c0,.2-.8.3-1.3.4-2.9,1.1-5.3-.3-7.5-1.9l-2.6,1.5-.5-.4"/><path d="M137,220.2c.1-1,.1-1.8.2-2.5a3.7,3.7,0,0,1,.7-1.4,32.2,32.2,0,0,1,3.2-3.2c.3-.2,1.5-.2,1.6.1a31.7,31.7,0,0,1,1.7,4.1l3.6-.7c1.1-.2,4.2,1.4,4.2,2.4a3.1,3.1,0,0,1-1.1,1.9,12.5,12.5,0,0,1-2.4,1.6c-1.8,1.1-5.7.8-7.3-.6l-.4-.3-4-1.4"/><path d="M174,239.8l-4.8-3.8a8.8,8.8,0,0,1-1.2-1.5,14,14,0,0,1,6,5.3"/><path d="M128.1,200.7c.5,2.4,2.2,3.1,4.6,3.2-1.3.6-4.4-.1-4.9-1.1a6.4,6.4,0,0,1-.3-2h.6"/><path class="d" d="M133.8,110.6c1.2-2.5,5.9-5.6,8.2-5.5-.2,1.4-5.4,5-8.2,5.5"/><path class="d" d="M129.8,108.3c2.7-1.8,5.1-4.1,8.6-4.4a22,22,0,0,1-8.6,4.4"/><path class="d" d="M133.9,103.2l-5.3,4-.5-.5c1-2.3,3.7-2.5,5.3-4.1l.5.6"/><path class="d" d="M129,103.1l-4.2,2.5a1.6,1.6,0,0,0-.4-.7l4.1-2.5.5.7"/></g><path class="e" d="M20.6,88.1H20l-1.8-.7-2.1-.8h-.5a.6.6,0,0,0-.3.8c0,.2.2.3.3.4l.7.3.7.3.7.3,1.6.6c-.1.3-.5,1.2-1.3,2.8s-1.3,2.8-1.7,3.7c-2.1-1.1-5.8-2.8-11-5a8.6,8.6,0,0,1,1.3-2.4c.2-.1.2-.3.2-.5a.6.6,0,0,0-.2-.5H5.7a8.5,8.5,0,0,0-1.7,3l-.3.9a1.4,1.4,0,0,0-.2.7,9.8,9.8,0,0,1-.6,1.4.4.4,0,0,0,0,.5c0,.2.2.3.3.4a.6.6,0,0,0,.6,0l.3-.3a9.1,9.1,0,0,0,.6-1.6l.2-.3L15.8,97l-.6,2a1.1,1.1,0,0,0,.1.5c.1.2.2.3.4.3a.4.4,0,0,0,.5-.1l.4-.4a15.2,15.2,0,0,1,1.1-3.2,30,30,0,0,1,1.7-3.8c.7-1.5,1.2-2.5,1.5-3.3a.4.4,0,0,0,0-.5C20.9,88.3,20.7,88.2,20.6,88.1Z"/><path class="e" d="M28.7,72.8l-1.3-.9-1-.6-.8-.5-.5-.3h-.5c-.2,0-.4.1-.4.3a.4.4,0,0,0-.1.5c0,.2.1.3.3.4l.5.3.8.5.9.5a4.6,4.6,0,0,1,1.2.9H28l-.6.9-2,3.1-1.1,1.7-4.9-2.9h0a9.3,9.3,0,0,0,.5-1,3.7,3.7,0,0,1,.5-1.1l.4-.9,1.1.6,1.3.8h.5l.4-.3a.7.7,0,0,0,.1-.6.5.5,0,0,0-.3-.4l-1.8-1L20,71.8l-1.5-1.2-.5-.2c-.2,0-.3.1-.5.3a.4.4,0,0,0-.1.5.4.4,0,0,0,.2.4,9.5,9.5,0,0,0,2.1,1.5l-.5,1-.6,1.1a4.1,4.1,0,0,1-.4.9l-4-2.3,1.4-2.4c.1-.2.2-.6.5-1.2a5,5,0,0,1,.7-1.3.8.8,0,0,1,.2-.4v-.3c.1-.1.1-.2.2-.2h.3l1.3.5,2.3,1.1c.2.1.3.2.5.1l.4-.3c.1-.2.2-.3.1-.5l-.3-.5-2.4-1.1-1.4-.6-.7-.2h-.7a2,2,0,0,0-.8.8.8.8,0,0,1-.1.4l-.2.2-.8,1.5c-.3.7-.4,1.1-.5,1.1A36.1,36.1,0,0,1,11,75.9a.9.9,0,0,0-.1.5c0,.2.1.3.3.4s.3.2.5.2l.4-.3,1.3-1.8,5.1,3,5.1,3-1.4,2.2a1.3,1.3,0,0,0-.1.6l.3.4H23c.1-.1.3-.2.4-.4l3.2-5.1,1.9-3,.7-1,.2-.3h0a.8.8,0,0,0,.1-.4.9.9,0,0,0-.3-.7Z"/><path class="e" d="M36.4,57.9c-1.4-.9-2.6-1.1-3.8-.4a5,5,0,0,0-1.3.9L30,59.5a7.6,7.6,0,0,1-2.2,1.1,2.5,2.5,0,0,1-1.9.1,2.4,2.4,0,0,1-1.1-1.3,3.8,3.8,0,0,1-.4-1.9,6.4,6.4,0,0,1,.6-1.8,3,3,0,0,1,1.3-1.2l1.1-.2h1.7a24.8,24.8,0,0,0,2.4,1.8c.2.1.3.2.5.1s.3-.1.4-.3.2-.3.2-.5l-.3-.4A26.8,26.8,0,0,1,30,53.5l-1.1-.9-1.2-1h-.5a.5.5,0,0,0-.4.2.6.6,0,0,0-.2.5.5.5,0,0,0,.3.5l.3.3a3.3,3.3,0,0,0-1.5.3A4.5,4.5,0,0,0,23.8,55a5.5,5.5,0,0,0-.7,2.5,5.3,5.3,0,0,0,.4,2.5,4.4,4.4,0,0,0,1.7,1.9,4.1,4.1,0,0,0,3.1,0,10,10,0,0,0,2.5-1.3l1.4-1.2,1.1-.7a1.9,1.9,0,0,1,1-.3l1.4.6a2.8,2.8,0,0,1,1.2,2.8,5.7,5.7,0,0,1-1.7,3,5.4,5.4,0,0,1-1.7.7,6.7,6.7,0,0,1-2,.1h-.3l-.9-.7L29.2,64h-.5a.5.5,0,0,0-.4.2.6.6,0,0,0,.1,1l1.1.9,1.1.9L33,68.7h.5c.2,0,.3-.1.5-.3a.7.7,0,0,0,.1-.5l-.3-.4-.9-.6A5.8,5.8,0,0,0,36,65.8a5,5,0,0,0,1.5-1.7,5.7,5.7,0,0,0,.7-2.2,4.6,4.6,0,0,0-.3-2.3A3.1,3.1,0,0,0,36.4,57.9Z"/><path class="e" d="M60.8,39.5c-.1-.1-.3,0-.5.1l-2,1.4h-.2l-.7-.4-1.1-.7L55.1,39l-1.5-.9-1.5-1-3.5-2.2-1.3-.7-.5-.2h-.6a1.3,1.3,0,0,0-1.2.9,1.8,1.8,0,0,0-.1,1.3l.4,1.1.3.7c.2.7.6,1.6,1.1,2.8s.8,2.2,1,2.8a21.5,21.5,0,0,1,.7,2.4,19.1,19.1,0,0,0,.9,2.6l-1.5,1.1a.8.8,0,0,0-.2.5.9.9,0,0,0,.1.5l.5.2h.5l5.1-4.2c.2-.1.2-.3.3-.5s-.1-.3-.2-.5l-.5-.2h-.5l-2.5,2.1-.7-1.9c-.3-1.2-.5-1.8-.5-2a41.8,41.8,0,0,1,4.3-3.9l3.7,2.2a32,32,0,0,0-2.6,2.4.8.8,0,0,0-.2.5c0,.2.1.3.2.5l.5.2a.5.5,0,0,0,.5-.3,33.2,33.2,0,0,1,5.5-4.5.5.5,0,0,0,.3-.5,1.1,1.1,0,0,0-.1-.5ZM48.7,42.2a16,16,0,0,0-.8-2l-1-2.7a4.4,4.4,0,0,0-.3-.8,2.3,2.3,0,0,1-.3-.9,1.8,1.8,0,0,1-.1-.6h.5l1.2.7,3.4,2.1,1,.7Z"/><path class="e" d="M71,24.1c-.6-2.6-1-4.2-1.1-4.8s-.1-.2-.1-.3a5.8,5.8,0,0,1,1.5-.6.5.5,0,0,0,.5-.3.7.7,0,0,0,.1-.5.5.5,0,0,0-.3-.4.4.4,0,0,0-.5-.1A7.5,7.5,0,0,0,68,18.5l-.8.5-.5.4-1.3.8c-.2.1-.3.2-.3.4a.4.4,0,0,0,0,.5l.4.4H66l1.4-.8.6-.4.6-.5c.1.4.4,2,1.1,4.7s.8,3.6,1,4.8v1.9a.3.3,0,0,1,0,.4,1.8,1.8,0,0,0-.8-.6l-.7-.6-1.7-1.5-1.7-1.7-2.2-1.8a15.6,15.6,0,0,1-1.8-1.7,5.7,5.7,0,0,1,2.2-.9c.2,0,.3-.1.4-.3a.4.4,0,0,0,.1-.5.5.5,0,0,0-.2-.4l-.5-.2a10,10,0,0,0-3.2,1.5l-.7.5-.6.4-1.3.8c-.1.1-.3.2-.3.4a.4.4,0,0,0,0,.5.5.5,0,0,0,.4.3.6.6,0,0,0,.6,0l1.4-.9.5-.4,2.1,1.9L65,28.1l1.6,1.6,1.8,1.6.8.6.9.8h.2a.8.8,0,0,0,.8.5,1.1,1.1,0,0,0,1-1,4.5,4.5,0,0,0,.1-1.3c0-.2-.1-.8-.2-1.9A24.3,24.3,0,0,0,71,24.1Z"/><path class="e" d="M94.2,21.5,93.7,20l-.4-1a3.6,3.6,0,0,1-.4-.9,3.9,3.9,0,0,1-.2-.6c-.1-.1-.2-.3-.4-.3h-.5c-.2,0-.3.2-.4.3a.4.4,0,0,0,0,.5,3.9,3.9,0,0,0,.2.6l.4.9.4,1,.5,1.3V22l-1,.4-3.5,1.3-1.9.7c-.5-1.2-1.2-3-2.2-5.3h.1l.9-.5,1.1-.6.9-.4.5,1.1a6.4,6.4,0,0,0,.6,1.4c0,.2.1.3.3.4a.4.4,0,0,0,.5,0,.8.8,0,0,0,.4-.4.4.4,0,0,0,0-.5,16.4,16.4,0,0,0-.8-1.9c-.4-.9-.7-1.6-.9-2.2a7.7,7.7,0,0,1-.5-1.9l-.3-.4h-.6a.5.5,0,0,0-.4.3.7.7,0,0,0-.1.5,23,23,0,0,0,.8,2.5l-1,.4-1.1.6-.9.5c-.8-1.8-1.4-3.2-1.8-4.4l2.5-1,1.2-.7,1.3-.6.4-.2h.5l.3.3.7,1.2A11.7,11.7,0,0,1,90,14.6c.1.1.2.3.4.3h.5c.2,0,.3-.2.4-.4a.4.4,0,0,0,0-.5c-.3-.7-.7-1.4-1.2-2.3l-.8-1.4-.4-.5-.7-.4a2.3,2.3,0,0,0-1.1.2l-.3.2h-.3l-1.5.8-1.1.5a40.4,40.4,0,0,1-5.7,2.2c-.2,0-.3.1-.4.3a.9.9,0,0,0-.1.5.8.8,0,0,0,.4.4h.5l2.1-.7c.5,1.2,1.2,3,2.3,5.4s1.8,4.3,2.3,5.5l-2.5,1c-.2,0-.3.2-.4.3a.6.6,0,0,0,0,.6c.1.1.2.3.4.3h.5L88.9,25l3.4-1.3,1.2-.4h.4a.3.3,0,0,0,.3-.3.8.8,0,0,0,.1-.7A1.3,1.3,0,0,0,94.2,21.5Z"/><path class="e" d="M111.1,4.4l.5-.2a.8.8,0,0,0,.2-.4.4.4,0,0,0-.1-.5.5.5,0,0,0-.4-.3,8.5,8.5,0,0,0-3.4.4l-.9.3-.7.2a5.6,5.6,0,0,1-1.5.4l-.4.3a1.1,1.1,0,0,0-.1.5l.3.5h.5l1.6-.4.6-.2.6-.2c.6,2.3,1.3,5.5,2,9.6a.4.4,0,0,1,.1.3,1.1,1.1,0,0,0,.1.5c0,.2.1.4.1.6a13.6,13.6,0,0,1-2.1-2.4l-1.6-2L105.2,10l-1.7-1.7-1.3-1.4a1,1,0,0,1-.1-.4,2,2,0,0,0-.7-1,.4.4,0,0,0-.4-.2h-.9l-1,.3h-.6l-.8.2-.9.3-.9.2-.5.3a.9.9,0,0,0-.1.5.5.5,0,0,0,.3.5h.5l1-.3h.5l.6-.2h.6c1.3,5.3,2.1,9.2,2.5,11.5l-2.4.9a.8.8,0,0,0-.4.4.7.7,0,0,0,.1.5l.4.4h.5a4.9,4.9,0,0,1,1.7-.6l2.3-.5,2-.4a.5.5,0,0,0,.4-.3.7.7,0,0,0,.1-.5l-.3-.4h-.5l-2.5.5c-.5-2.4-1.3-6.3-2.6-11.7h.6c.2.4.3.8.5.9l1.4,1.4,1.5,1.7,1.3,1.5,1.3,1.6,1.6,2,1.7,1.5h0l.2.2a.7.7,0,0,0,1.1.2l.3-.4c0-.1.1-.1.1-.2v-.5c0-.2-.1-.6-.1-1l-.2-.6a1.3,1.3,0,0,0-.1-.6v-.3c-.8-4.1-1.4-7.4-2.1-9.8A4.1,4.1,0,0,1,111.1,4.4Z"/><path class="e" d="M131.1,1.7V1.5c0-.2,0-.3-.2-.4l-.4-.2a14.2,14.2,0,0,0-3.6-.1l-4.2.5-3.5.4h-.3c-.2,0-.3.1-.4.3s-.2.3-.2.5.1.7.3,1.3.1,1.1.2,1.6.1.9.2,1.3,0,.4.2.5l.5.2c.2,0,.3-.1.4-.3s.2-.3.2-.5a31.2,31.2,0,0,0-.5-3.6l4.6-.6c.5,5.7.7,9.7.8,12.1l-2.3.5a.8.8,0,0,0-.4.4.4.4,0,0,0,0,.5c0,.2.1.3.3.4h.5l1.8-.4h4.3l.5-.2c.1-.2.2-.3.2-.5s-.1-.4-.3-.5a.4.4,0,0,0-.5-.1h-2.7c-.1-2.4-.4-6.5-.9-12.2a19.4,19.4,0,0,1,4.1-.1,18.3,18.3,0,0,1,.2,1.9,19.1,19.1,0,0,1,.2,2c.1.2.1.3.3.4s.3.2.5.2l.4-.2a.6.6,0,0,0,.2-.5c0-.5-.1-1.2-.2-2.2S131.1,2.1,131.1,1.7Z"/><path class="e" d="M152.3,1.5A7.6,7.6,0,0,0,149,1h-3.7c-.1.2-.2.3-.2.5a.9.9,0,0,0,.1.5l.5.2h2.9V4.7c-.1,1.4-.1,2.6-.2,3.5a21.1,21.1,0,0,1-.4,3.3,3.2,3.2,0,0,1-.6,1.9,3.9,3.9,0,0,1-1.4,1,6.4,6.4,0,0,1-2,.3,4.5,4.5,0,0,1-2-.4,2.5,2.5,0,0,1-1.2-1.1,7.4,7.4,0,0,1-.4-3.6c.1-.5.2-1.2.3-2a11.9,11.9,0,0,0,.3-2c.1-.2.1-1.5.3-3.8h0a6,6,0,0,1,2.5.4h.5c.2,0,.3-.2.4-.3a.4.4,0,0,0,0-.5l-.3-.4A8.3,8.3,0,0,0,141,.4h-3.2l-.5.2a.8.8,0,0,0-.2.5.6.6,0,0,0,.2.5l.4.2h2.2c-.1,2.2-.2,3.4-.2,3.7a10.5,10.5,0,0,0-.3,1.9,10.4,10.4,0,0,0-.3,2.1,8,8,0,0,0,.5,4.3,3.3,3.3,0,0,0,1.8,1.7,5.5,5.5,0,0,0,2.6.6,7,7,0,0,0,2.5-.5,4.3,4.3,0,0,0,2-1.4,5,5,0,0,0,.9-2.4c.1-.9.3-2.1.4-3.5s.1-2.2.1-3.6.1-2.2.1-2.3a3.4,3.4,0,0,1,1.8.4h.5a.8.8,0,0,0,.4-.4.5.5,0,0,0,0-.5Z"/><path class="e" d="M172,14.4c-.2-.1-.3,0-.5.1s-.3.2-.3.4a3.5,3.5,0,0,0-.1.6,6.4,6.4,0,0,1-.2.7c0,.2-.1.4-.1.7l-.3.6a1,1,0,0,1-.5.7c-.2.1-.4.1-.8-.1l-.5-.2-.2-.4a2,2,0,0,1,0-1.1,2.5,2.5,0,0,1,.2-.7l.2-.8a4,4,0,0,0-.4-3.7l1.6-.5a3.6,3.6,0,0,0,1.6-2.5V6.9a2.9,2.9,0,0,0-.3-1.4,3.5,3.5,0,0,0-.9-.7l-1.3-.6a24.6,24.6,0,0,0-3.5-1.1l-3.5-.7a11.2,11.2,0,0,0-2.4-.4l-.5.2a.5.5,0,0,0-.3.5c0,.2.1.3.2.5l.5.2a11,11,0,0,1,2.5.4c-1.2,5.4-2.1,9.3-2.7,11.6a8.2,8.2,0,0,0-2.6-.2l-.5.2a.7.7,0,0,0-.1.5.6.6,0,0,0,.2.5h.5a5.5,5.5,0,0,1,1.8.2l2.2.5,2,.5a.4.4,0,0,0,.5-.1c.2-.1.3-.2.3-.4s0-.3-.1-.5-.2-.3-.4-.3l-2.5-.6a51.5,51.5,0,0,0,1.3-5.3l.9.2,1.3.3h1.2l1.3.2.2.2a4.1,4.1,0,0,1,.8,1.4,3.1,3.1,0,0,1-.2,1.6l-.2.8-.3.8a3.3,3.3,0,0,0,.2,2,2,2,0,0,0,.6.9l.8.4a2.3,2.3,0,0,0,2,0,2.9,2.9,0,0,0,1.1-1.3l.3-.8a1.9,1.9,0,0,1,.2-.8c0-.2.1-.4.1-.8a1.8,1.8,0,0,0,.1-.5.4.4,0,0,0-.1-.5C172.3,14.5,172.2,14.4,172,14.4Zm-4.6-4.5-2.6-.3-2.3-.4,1-5.2,1.9.5a14.5,14.5,0,0,1,3.3,1l1.1.4.4.3a4.5,4.5,0,0,1,.2.8,3.4,3.4,0,0,1-.1,1,2,2,0,0,1-.9,1.5A4,4,0,0,1,167.4,9.9Z"/><path class="e" d="M191,10.5h-.6l-1.6-.5-1.2-.3a31.7,31.7,0,0,1-5.7-2.3.4.4,0,0,0-.5,0,.8.8,0,0,0-.4.4.4.4,0,0,0,0,.5c0,.2.1.3.3.4l2,.9-1.9,5.5c-.9,2.5-1.6,4.4-2,5.7l-2.5-1a.5.5,0,0,0-.5,0,.8.8,0,0,0-.4.4v.5c.1.2.3.3.4.4s2.3.8,5.6,2.2l3.5,1.3,1,.4h.5a.3.3,0,0,0,.4,0c.2,0,.4-.2.6-.5l.3-.5.6-1.5.4-1,.3-.9a3.9,3.9,0,0,0,.2-.6.4.4,0,0,0,0-.5c-.1-.2-.2-.3-.4-.3h-.5a.8.8,0,0,0-.4.4l-.2.5-.3.9-.3,1-.6,1.4c-.1,0-.1.1-.1.2l-1.1-.5-3.4-1.3-1.9-.8c.5-1.2,1.1-3,2-5.4h0l1.1.2,1.1.3,1,.3a5.3,5.3,0,0,0-.4,1.1l-.5,1.5a.4.4,0,0,0,0,.5c.1.2.2.3.4.3a.5.5,0,0,0,.5,0,.8.8,0,0,0,.4-.4l.6-1.9a18.5,18.5,0,0,1,.9-2.3,8.9,8.9,0,0,1,.8-1.7,1.1,1.1,0,0,0,.1-.5l-.3-.5h-.6a.5.5,0,0,0-.4.3l-1.1,2.3-1-.3-1.2-.3-1-.2c.6-1.9,1.2-3.3,1.6-4.5l2.6.9,1.3.3,1.4.4.4.2h.5c.1.1,0,.2,0,.3a7.8,7.8,0,0,1-.2,1.4l-.7,2.5a.4.4,0,0,0,0,.5c.1.2.2.3.4.3a.5.5,0,0,0,.5,0,.8.8,0,0,0,.4-.4c.2-.7.4-1.6.7-2.5a15.7,15.7,0,0,1,.3-1.6v-.6a1.9,1.9,0,0,0-.2-.8A1.9,1.9,0,0,0,191,10.5Z"/><path class="e" d="M208.6,18.1a.5.5,0,0,0-.5,0c-.2,0-.3.2-.4.3l-.2.4a2.6,2.6,0,0,0-.6-1.4,3.8,3.8,0,0,0-2.1-1.5,5.2,5.2,0,0,0-2.5-.3,5,5,0,0,0-2.4.9,3.3,3.3,0,0,0-1.5,2,4,4,0,0,0,.5,3.1,17.4,17.4,0,0,0,1.8,2.2l1.4,1.1a7.3,7.3,0,0,1,.9.9,2.4,2.4,0,0,1,.5,1,3.4,3.4,0,0,1-.4,1.5,2.4,2.4,0,0,1-2.4,1.6,3.7,3.7,0,0,1-1.8-.2,5.3,5.3,0,0,1-1.5-.8,4,4,0,0,1-1-1.5,4.9,4.9,0,0,1-.5-2v-.3l.5-1a8.8,8.8,0,0,0,.7-1.2.6.6,0,0,0,0-.6.5.5,0,0,0-.3-.4h-.5l-.4.3-.7,1.3-.7,1.3c-.5,1-1,1.9-1.3,2.7a.4.4,0,0,0,0,.5.8.8,0,0,0,.4.4h.5a.8.8,0,0,0,.4-.4,10.4,10.4,0,0,0,.4-1,5.9,5.9,0,0,0,1.7,2.9,4.9,4.9,0,0,0,2,1.1,8.3,8.3,0,0,0,2.2.3,5.6,5.6,0,0,0,2.3-.7,3.7,3.7,0,0,0,1.4-1.8,3.6,3.6,0,0,0-.3-3.8,4.4,4.4,0,0,0-1.2-1.1l-1.3-1.1-1.5-1.9a2.1,2.1,0,0,1-.4-1.9,2.3,2.3,0,0,1,1-1.4,3.5,3.5,0,0,1,1.8-.6,4.1,4.1,0,0,1,1.9.1,3.1,3.1,0,0,1,1.4,1.1,2.3,2.3,0,0,1,.4,1.1v1.4h0V21c-.5,1-1,1.9-1.3,2.7a.4.4,0,0,0,0,.5.8.8,0,0,0,.4.4h.5l.4-.4,1.2-2.6.7-1.2.7-1.3a.6.6,0,0,0,0-.6C208.9,18.3,208.8,18.2,208.6,18.1Z"/><path class="e" d="M229.4,43.9a11.7,11.7,0,0,0,1.5-2.7,14,14,0,0,0,.6-2.8,1.8,1.8,0,0,1,.1-.6V36.6c-.1-.2-.1-.5-.2-.7A5.9,5.9,0,0,0,230,34a24.9,24.9,0,0,0-2.3-2.2l-1.5-1.2h0l-.3-.2a21.1,21.1,0,0,0-2.6-1.8h-.5c-.2.1-.4.2-.4.4s-.2.3-.1.5a.8.8,0,0,0,.4.4l1.9,1.3-.9,1-.8,1-.7.9-1.6,1.9-2.1,2.5L217,40.5a15.3,15.3,0,0,0-1.7-1.4.4.4,0,0,0-.5-.1.5.5,0,0,0-.4.2c-.1.2-.2.4-.1.5a.8.8,0,0,0,.2.5,12,12,0,0,1,2,1.7,25.5,25.5,0,0,0,2.3,1.9c1.9,1.6,3.6,2.5,5.2,2.6a5.2,5.2,0,0,0,3-.6A7.2,7.2,0,0,0,229.4,43.9ZM224.1,45a8.8,8.8,0,0,1-4.5-2.2L218,41.4l1.5-2.1a31,31,0,0,1,2.1-2.5,15.6,15.6,0,0,1,1.7-2l.8-1.1.7-1,.8-.8,1.2.9,2.2,2.1a6.5,6.5,0,0,1,1.1,1.5.6.6,0,0,1,.1.4v1.5a10.5,10.5,0,0,1-.6,2.4,8.6,8.6,0,0,1-1.3,2.3A4.5,4.5,0,0,1,224.1,45Z"/><path class="e" d="M246.8,51.9l.4-.5a2.2,2.2,0,0,0,.1-.8,2.4,2.4,0,0,0-.6-.9l-.3-.3-.2-.2L245,48.1l-.9-.8a49.9,49.9,0,0,1-4.1-4.7.5.5,0,0,0-.4-.2.4.4,0,0,0-.5.1c-.2.1-.2.3-.3.5a1.7,1.7,0,0,0,.2.5l1.3,1.7-4.3,4-4.3,4.1-1.7-2-.5-.2-.5.2a.8.8,0,0,0-.2.5.9.9,0,0,0,.1.5c.3.3,1.7,1.8,4,4.5l2.5,2.7.7.9.2.2h.1l.4.2a1,1,0,0,0,.7-.2l.6-.3,1.2-1.1.8-.7.7-.6c.2-.3.4-.4.4-.5s.2-.2.3-.4a.8.8,0,0,0-.2-.5c-.1-.2-.3-.2-.5-.2h-.5c0,.1-.2.2-.4.4l-.7.7-.8.7-1.1,1h-.2l-.7-.9L234,55.9l-1.4-1.6,4.2-3.9h0c.3.1.5.4.9.7l.9.7.7.7-.9.9-1.1,1a.8.8,0,0,0-.2.5c0,.2,0,.4.2.5a.5.5,0,0,0,.4.2c.2,0,.4,0,.5-.2l1.5-1.4,1.8-1.7,1.5-1.1c.2-.1.3-.2.3-.4a.4.4,0,0,0-.1-.5.8.8,0,0,0-.4-.4h-.5l-2,1.6-.8-.8-1-.8-.7-.6,3.4-3.3,1.9,2.1,1,.8,1.1,1c0,.1.2.2.3.3s.2.3.3.3h.1c0,.1-.1.2-.2.4l-.9,1.1a15.2,15.2,0,0,1-1.7,1.8c-.1.2-.2.3-.2.5a.8.8,0,0,0,.2.5l.5.2.5-.2,1.7-1.9A5,5,0,0,0,246.8,51.9Z"/><path class="e" d="M256.5,80l.3-.4a.7.7,0,0,0-.1-.5.5.5,0,0,0-.4-.3h-.6l-.6.4-.6.4-.7.4-1.4.9-1.5-2.6-2-3.5c2.1-1.1,5.6-3.1,10.4-6.1a6.2,6.2,0,0,1,1.2,2.5c0,.2.1.3.3.4a.4.4,0,0,0,.5.1.5.5,0,0,0,.4-.2c.1-.2.2-.4.1-.5a7.8,7.8,0,0,0-1.4-3.2l-.5-.7-.5-.6-.8-1.2-.4-.4h-.5c-.2.1-.3.2-.3.4a.4.4,0,0,0,0,.5,8,8,0,0,0,.9,1.4l.3.3-10.5,6.1L246.9,72l-.5-.2h-.5c-.1.2-.2.3-.2.5a.7.7,0,0,0,.1.5,20,20,0,0,1,2,2.8,28.7,28.7,0,0,1,2.1,3.6l1.8,3.1.4.4h.5a.5.5,0,0,0,.3-.5l1.6-1Z"/><path class="e" d="M263.8,96.8l.5-.2a.8.8,0,0,0,.4-.4v-.5a.8.8,0,0,0-.4-.4h-.5l-.6.3-.8.4-1,.4-1.4.5h-.2l-.4-1.1L258,92.5l-.7-1.9,5.2-2.3h0l.6.9.6,1,.4.9-1.1.5-1.4.6c-.2.1-.3.2-.3.4a.4.4,0,0,0,0,.5c0,.2.2.3.3.4a.6.6,0,0,0,.6,0l1.8-.9,2.3-.9a6.4,6.4,0,0,1,1.8-.6l.4-.3a.9.9,0,0,0,.1-.5.5.5,0,0,0-.3-.5h-.5l-2.5.9a10.4,10.4,0,0,0-.4-1l-.7-1.1-.5-.9,4.3-1.9a19.7,19.7,0,0,0,1.2,2.5l.6,1.2a8.8,8.8,0,0,1,.7,1.3c0,.1.1.2.2.4l.2.3v.2a.2.2,0,0,1-.2.2,4.9,4.9,0,0,1-1.3.8l-2.2,1.2c-.2.1-.3.2-.3.4a.5.5,0,0,0,0,.5l.4.4h.5l2.3-1.2a4.8,4.8,0,0,0,1.3-.9,1.3,1.3,0,0,0,.6-.4.9.9,0,0,0,.3-.6,1.5,1.5,0,0,0-.2-1.1l-.2-.4a.3.3,0,0,1-.1-.2,11.5,11.5,0,0,0-.8-1.5l-.6-1.1a37.9,37.9,0,0,1-2.3-5.7c0-.2-.1-.3-.3-.4h-.5l-.4.3a1.3,1.3,0,0,0-.1.6l.8,2-5.4,2.4-5.5,2.5c-.5-1.4-.9-2.3-1-2.5a.3.3,0,0,0-.3-.3h-.6a.3.3,0,0,0-.3.3.4.4,0,0,0,0,.5c.1.4.9,2.3,2.3,5.6l1.3,3.4.5,1.1v.3h0l.3.4h.8l.6-.2,1.5-.5,1-.5Z"/><path class="e" d="M270.9,86.3a20.5,20.5,0,0,1,3.3,2.3.6.6,0,0,0,.5.2c.2,0,.4,0,.5-.2a.6.6,0,0,0,0-.9,18.7,18.7,0,0,0-3.6-2.6h-.5l-.4.3a1.3,1.3,0,0,0-.1.6Z"/><path class="e" d="M277.7,106.7a5.7,5.7,0,0,0-.8-2.5,4.4,4.4,0,0,0-1.9-1.9,8.4,8.4,0,0,0-4.8-.6,11.4,11.4,0,0,0-4.7,1.3,7.2,7.2,0,0,0-2.9,3.3,5,5,0,0,0,.1,4.3,3.5,3.5,0,0,0,.9,1.6,3.8,3.8,0,0,0,1.4.9q4.2,1.8,10.2-1.5.3-.1.3-.3a4.9,4.9,0,0,0,1.8-2A5.7,5.7,0,0,0,277.7,106.7Zm-1.7,2.1a2.5,2.5,0,0,1-1.2,1.3l-.3.3q-5.4,3-9,1.5a2.2,2.2,0,0,1-.9-.7,3.5,3.5,0,0,1-.7-1.1,3.8,3.8,0,0,1,0-3.3,4.7,4.7,0,0,1,2.4-2.6,9.5,9.5,0,0,1,4-1.2c1.9-.1,3.2,0,4,.5a3.2,3.2,0,0,1,1.4,1.4,3.3,3.3,0,0,1,.6,1.9A3.4,3.4,0,0,1,276,108.8Z"/></svg>